<svg id="Layer_1" data-name="Layer 1" xmlns="http://www.w3.org/2000/svg" viewBox="0 0 1001.19 1001.19"><defs><style>.cls-1{fill:#fefefe;}.cls-2{fill:#c9b105;}.cls-3{fill:#fefefd;}.cls-4{fill:#ede5ad;}.cls-5{fill:#c9b106;}.cls-6{fill:#c9b206;}.cls-7{fill:#cab207;}.cls-8{fill:#d5c340;}.cls-9{fill:#eee6b1;}.cls-10{fill:#e8de95;}.cls-11{fill:#d0bb24;}.cls-12{fill:#f0e9ba;}.cls-13{fill:#ded16a;}.cls-14{fill:#efe8b8;}.cls-15{fill:#e4d985;}.cls-16{fill:#ebe2a2;}.cls-17{fill:#f5f2d5;}.cls-18{fill:#ece4a9;}.cls-19{fill:#eee7b4;}.cls-20{fill:#f2edc4;}.cls-21{fill:#fefdfc;}.cls-22{fill:#fdfdfb;}.cls-23{fill:#f0eabd;}.cls-24{fill:#ceb91d;}.cls-25{fill:#cdb718;}.cls-26{fill:#d1bd2b;}.cls-27{fill:#fcfaf2;}.cls-28{fill:#faf8ea;}.cls-29{fill:#fbfaf0;}.cls-30{fill:#d2be2d;}.cls-31{fill:#faf8ec;}.cls-32{fill:#fcfbf6;}.cls-33{fill:#ede5ab;}.cls-34{fill:#efe8b4;}.cls-35{fill:#fbf9ef;}.cls-36{fill:#fbf9ee;}.cls-37{fill:#faf8e9;}.cls-38{fill:#f2ecc3;}.cls-39{fill:#ede6af;}.cls-40{fill:#fdfcf9;}.cls-41{fill:#d1bc28;}.cls-42{fill:#fdfcf8;}.cls-43{fill:#ede5ae;}.cls-44{fill:#efe8b7;}.cls-45{fill:#f0eabe;}.cls-46{fill:#ccb614;}.cls-47{fill:#efe9b9;}.cls-48{fill:#fdfdfa;}.cls-49{fill:#fcfcf6;}.cls-50{fill:#fcfbf5;}.cls-51{fill:#fcfbf4;}.cls-52{fill:#fdfcf7;}.cls-53{fill:#e4d885;}.cls-54{fill:#fdfdf9;}.cls-55{fill:#d5c23d;}.cls-56{fill:#cdb819;}.cls-57{fill:#d6c442;}.cls-58{fill:#d3c034;}.cls-59{fill:#dccd5e;}.cls-60{fill:#d3c033;}.cls-61{fill:#d6c441;}.cls-62{fill:#d5c23c;}.cls-63{fill:#ceb81b;}.cls-64{fill:#cfb91f;}.cls-65{fill:#d3bf32;}.cls-66{fill:#d4c138;}.cls-67{fill:#d2bf30;}.cls-68{fill:#d5c33d;}.cls-69{fill:#d4c23a;}.cls-70{fill:#d3c035;}.cls-71{fill:#d4c137;}.cls-72{fill:#d8c74b;}.cls-73{fill:#d8c64a;}.cls-74{fill:#d4c136;}.cls-75{fill:#e1d476;}.cls-76{fill:#f1eabd;}.cls-77{fill:#dfd26f;}.cls-78{fill:#d7c647;}.cls-79{fill:#d5c33e;}.cls-80{fill:#ceb91e;}.cls-81{fill:#f1ebbe;}.cls-82{fill:#cdb615;}.cls-83{fill:#f6f3d9;}.cls-84{fill:#d0bc28;}.cls-85{fill:#cab208;}.cls-86{fill:#f3eeca;}.cls-87{fill:#f3edc8;}.cls-88{fill:#f4f0cf;}.cls-89{fill:#f9f6e7;}.cls-90{fill:#ede5ac;}.cls-91{fill:#f9f7e6;}.cls-92{fill:#f1ebc1;}.cls-93{fill:#fcfcf7;}.cls-94{fill:#f1ebbf;}.cls-95{fill:#e9e09e;}.cls-96{fill:#f3eec9;}.cls-97{fill:#f2ecc5;}.cls-98{fill:#f1ebc0;}.cls-99{fill:#f1ecc2;}.cls-100{fill:#f1ecc3;}.cls-101{fill:#f0ebbf;}.cls-102{fill:#f7f4dd;}.cls-103{fill:#f4f0d0;}.cls-104{fill:#f5f0d2;}.cls-105{fill:#f7f3dc;}.cls-106{fill:#f8f5e2;}.cls-107{fill:#f5f1d4;}.cls-108{fill:#f2ecc4;}.cls-109{fill:#f3efcc;}.cls-110{fill:#f8f5e0;}.cls-111{fill:#f5f1d5;}.cls-112{fill:#faf8eb;}.cls-113{fill:#f5f1d3;}.cls-114{fill:#fbfaf1;}.cls-115{fill:#f6f2d6;}.cls-116{fill:#fcfbf3;}.cls-117{fill:#fefefc;}.cls-118{fill:#d6c443;}.cls-119{fill:#e7dc90;}.cls-120{fill:#e1d577;}.cls-121{fill:#dccc5b;}.cls-122{fill:#f9f6e5;}.cls-123{fill:#fbfaf2;}.cls-124{fill:#f9f7e8;}.cls-125{fill:#faf9ec;}.cls-126{fill:#f2edc7;}.cls-127{fill:#f9f7e7;}.cls-128{fill:#f6f2d8;}.cls-129{fill:#f2ecc2;}.cls-130{fill:#e3d781;}.cls-131{fill:#e4d884;}.cls-132{fill:#cbb50f;}.cls-133{fill:#d0bb26;}.cls-134{fill:#cfba21;}.cls-135{fill:#dbcc5a;}.cls-136{fill:#d1bc29;}.cls-137{fill:#d1bd2a;}.cls-138{fill:#d9c951;}.cls-139{fill:#f0eabc;}.cls-140{fill:#f6f2d9;}.cls-141{fill:#f8f5df;}.cls-142{fill:#f7f4de;}.cls-143{fill:#cdb717;}.cls-144{fill:#d2be30;}.cls-145{fill:#faf9ed;}.cls-146{fill:#daca56;}.cls-147{fill:#dfd16d;}.cls-148{fill:#f8f6e4;}</style></defs><title>logo-sd-2020</title><path class="cls-1" d="M1042,676q0,247.75.09,495.5c0,3.75-.84,4.59-4.59,4.59q-496-.15-992,0c-3.75,0-4.59-.84-4.59-4.59q.15-496,0-992c0-3.75.84-4.59,4.59-4.59q496,.15,992,0c3.75,0,4.6.84,4.59,4.59Q1041.94,427.75,1042,676Z" transform="translate(-40.91 -174.91)"/><path class="cls-2" d="M112.83,826.84c-7.72-8.42-15-15.22-21.48-22.83-13-15.36-21.68-33-28-51.94-1.28-3.78-1-7.52,2.85-9.64,3.48-1.93,6.71-.88,9.32,2.2,26.91,31.83,64,43.31,102.82,51.26,8,1.63,16.16,2.06,24.24,3.14,3.15.43,4.31,0,3.63-3.8a442.74,442.74,0,0,1-6.88-92.49c.93-28.27,3.17-56.5,4.37-84.76,1.44-34,2.1-67.89-4.36-101.55-8-41.72-27.94-76.92-57.47-107-2.63-2.68-5.12-5.49-8.5-9.13,12.51-.81,23.74-1.43,35-2.29,49.15-3.79,98.17-8.52,146-21.52,48.07-13.09,92.52-34.39,134.88-60.21,27.42-16.72,54.57-33.91,81.57-51.32,7-4.53,12.43-4.84,19.62,0q41.12,27.45,83,53.82c45.48,28.63,93.73,51.05,146.19,63.8a674,674,0,0,0,93,15.51c22.2,2.19,44.44,4,66.65,6,1.26.11,3.06-.53,3.64.82.74,1.73-1.25,2.49-2.21,3.46-18.54,18.87-35.08,39.17-46.56,63.25-13,27.31-18.92,56.3-21,86.27-2.32,34.16.27,68.22,1.91,102.31,1.24,25.79,1.73,51.6.93,77.42A372.53,372.53,0,0,1,869.36,795c-.54,2.87-1.83,6,3.66,5.13,15.41-2.56,31.08-3.3,46.33-7.09,25.59-6.36,49.82-15.64,71-31.85a75.42,75.42,0,0,0,15.27-15c2.75-3.74,6-5.88,10.64-3.61,3.58,1.76,4.27,5.87,2.39,11.52-8.72,26.16-23.46,48.4-43.55,67.17-1.56,1.46-3.45,2.57-4.74,4.63,10,1.12,19.58,1.68,29.1.67a147.42,147.42,0,0,1,17.94-1c3,0,6.1.06,7.75,3.34,1.77,3.51.36,6.45-1.69,9.25a100.55,100.55,0,0,1-17.84,18.1c-21.41,17.51-46.22,28.12-72.59,35.4-5.12,1.41-7.15,3-6.11,8.92,2.57,14.74,4.21,29.64,8.71,44,1.31,4.18.37,7.61-2.68,10.95-10.43,11.42-23.62,17.28-38.41,20.75-18.45,4.33-36.67,9.64-55.1,14.09-38.5,9.28-77.28,17.19-116.43,23.22-20.55,3.17-41.18,5.83-61.94,7.36a30.24,30.24,0,0,0-10.1,2.6c-33.8,15.08-66.63,31.92-96.61,53.84-4.7,3.43-9.24,7.12-13.69,10.88-2,1.66-3.4,1.93-5.5.13-32.39-27.59-70-46.51-108-64.85-7.43-3.58-15.17-3.46-22.85-4.34C332.6,1011,262.15,996.46,192.66,977c-5.28-1.47-10.64-2.66-15.95-4-11.56-3-20.36-10.27-28.59-18.46-2.89-2.86-3.08-6.23-2-9.72,4.74-15.5,6.9-31.48,9.26-47.46.56-3.8-.84-4.42-3.71-5.21-20.93-5.77-41.19-13.18-59.61-24.94-12.28-7.84-23.48-16.92-32.55-28.49-2.51-3.2-3.59-6.48-2-10.15s5.18-3.39,8.25-3.32c13.64.31,27.21,2.11,40.89,1.63C108.23,826.8,109.84,826.84,112.83,826.84Z" transform="translate(-40.91 -174.91)"/><path class="cls-1" d="M177,417.34a698.59,698.59,0,0,0,140.59-20.52,456.72,456.72,0,0,0,121.71-50.36c32.35-19.21,63.58-40.22,96.23-58.91,4.13-2.37,7-2.41,11.21.12,29.73,17.78,57.29,38.95,87.44,56,31.7,18,63.47,35.83,98.43,47,41,13.12,83.09,21.3,125.8,26.43,12.42,1.48,24.86,2.33,37.33,3,4,.21,4.74,1.12,2.38,4.86-8.18,12.93-17.48,25.14-24.43,38.85-15.32,30.24-22.36,62.51-23.5,96.15-1,29.82.09,59.63,2.08,89.37,1.78,26.59,3.25,53.21,3,79.83-.39,39.48-5.26,78.33-19.25,115.63-1.66,4.42-4,6.35-8.54,7.63a1160,1160,0,0,1-115.78,26.16c-24.45,4.26-49.09,6.92-73.77,9.37-34.18,3.4-68.44,4.16-102.77,3.95C458,891.42,381.76,883,306.51,865.62c-20.43-4.72-40.47-10.83-60.83-15.77a8,8,0,0,1-6.22-5.67c-11.78-33.91-18.5-68.66-18.69-104.66-.12-23.16-.49-46.31,1.27-69.41,1.94-25.23,4.28-50.45,4.52-75.75.17-18.46-.82-36.94-1.5-55.4-1.22-33.56-12.61-64-28.8-93A251.86,251.86,0,0,0,177,417.34Z" transform="translate(-40.91 -174.91)"/><path class="cls-1" d="M906.22,832.18c7.95,3,10.65,6.64,10.57,15.15-.1,11.13-1.51,22.28.17,33.4,3.2,21.2,4.75,42.7,11,63.35,1.08,3.53.26,5.59-2.42,8.17-8.77,8.42-18.91,13.44-30.75,16.49C851,980,807.22,991.33,762.7,999.55c-38,7-76.23,12.11-114.71,15.69-47.53,4.42-95.15,4.37-142.77,3.49-60.51-1.13-120.54-7.56-180.13-18.28-44.4-8-88.16-18.69-131.6-30.76-5.12-1.43-10.37-2.42-15.49-3.84-9.67-2.67-16.78-9.27-23.85-15.9-1.88-1.78-.87-3.59-.39-5.53,7-28.18,12.07-56.64,12.2-85.78,0-3.49-.44-7-.73-10.45-.54-6.37,3.16-13.5,8-15.42,1.42-.57,2.77-1.51,3.14,1.14.6,4.29,3.85,6.1,7.52,7.06,68.52,17.93,136.49,38.25,206.93,47.84,34.66,4.72,69.4,8.46,104.4,9.34,22,.55,44,1.6,65.91,1.29,42.31-.59,84.41-4.32,126.37-9.87,62.37-8.24,122.79-25,183.41-41,9.32-2.46,18.61-5.06,27.88-7.69C903.11,839.64,906.35,837.3,906.22,832.18Z" transform="translate(-40.91 -174.91)"/><path class="cls-1" d="M1010.43,754.38c-10.08,32.83-33.3,55.64-57.76,78.52,22,2.69,43.24.22,65.59-.1a97.7,97.7,0,0,1-21.14,21c-21.23,15.91-45.46,25.42-70.78,32.52-2.66.75-3.48.2-3.76-2.46-1-9.11-1.57-18.17-.82-27.38,1.59-19.43-7.33-29.24-27-30.42-9.14-.55-18.28-1.17-27.42-1.54-3.31-.13-4.74-.48-3.64-4.53,3.43-12.76,3.24-12.86,17.21-13.83a244.76,244.76,0,0,0,86.07-22,130.1,130.1,0,0,0,40.52-28.69A2.77,2.77,0,0,1,1010.43,754.38Z" transform="translate(-40.91 -174.91)"/><path class="cls-1" d="M130,832.62c-22.55-20.73-44.28-41.41-55-70.53-1.06-2.88-2.65-5.61-3-9.71,19.13,20.79,42.54,33,68.09,41.43,21.43,7.1,43.63,10.47,66,12.93,2.54.28,3.89.87,4.26,3.59a65.7,65.7,0,0,0,2,8.24c1.41,5.33,3,6-5,6.31-7.32.27-14.67,0-21.93,1.14-7.66,1.17-14.87,3.18-20.44,9.27-3.35,3.68-5.26,7.65-5,12.58.66,11,1.31,21.92-.11,32.89-.78,6-.77,6.32-6.65,4.6-29-8.48-56.3-20.38-78.94-41.13-2.56-2.36-4.9-5-7.24-7.56-.83-.93-2.35-1.9-1.73-3.31s2.37-.79,3.58-.74c11.31.43,22.61,1.09,33.92,1.41C111.62,834.29,120.43,834.58,130,832.62Z" transform="translate(-40.91 -174.91)"/><path class="cls-1" d="M839.63,848.81A275.59,275.59,0,0,0,852.45,808a335.33,335.33,0,0,0,8.12-69.29c.6-47.33-3.2-94.49-5.22-141.73-2.28-53.24,4.78-104.68,33.23-151.32,6.33-10.39,14-19.8,21.62-30.07L883.12,413c-48.63-4.54-96.76-11.61-143.47-26.64-50-16.09-95.52-41.13-139.32-69.64-18.13-11.8-36.4-23.41-54.45-35.36-3.92-2.59-6.88-2.48-10.76,0q-36,23-72.25,45.51c-56.13,34.73-116.19,59.57-181.25,71.78A715.86,715.86,0,0,1,209.87,408c-12.94,1.1-25.83,2.69-38.81,3.25a25.91,25.91,0,0,0-3.53.75c3.3,4.32,6.27,8.25,9.27,12.17,24,31.3,37.21,67,42.2,105.8,4.59,35.71,2.05,71.42-.38,107.15-2.87,42.2-5.55,84.46-2.43,126.76a275.12,275.12,0,0,0,16.45,75.35c.86,2.32,1.59,4.68,2.5,7.4-3.59.34-5-1.71-5.87-4.3A333.13,333.13,0,0,1,212,758.55c-3.31-41.49-.66-82.86,2.66-124.21,2.58-32.23,4.24-64.45,1.21-96.76-4.44-47.42-22-89.13-53.58-124.9-.77-.87-1.5-1.78-2.2-2.71a8.4,8.4,0,0,1-.58-1.61c5.32-.46,10.49-1,15.67-1.34,55.6-3.45,110.66-10.16,164.11-26.85,48.36-15.1,92.76-38.3,135.35-65.31,19.82-12.56,39.77-24.93,59.49-37.65,4.69-3,8.16-2.8,12.86.22,30.12,19.31,59.64,39.57,90.42,57.87a511.28,511.28,0,0,0,195.11,68c28.39,3.82,56.92,6,85.4,8.68.49,2.07-1.12,2.83-2,3.84-32.95,37.14-51.13,80.44-55.17,130-2.53,31-1,61.86.87,92.78,1.22,20.11,2,40.24,2.77,60.36a518.38,518.38,0,0,1-1.27,64.88c-2.19,25.64-7,50.73-15.62,75-.72,2-1.3,4.11-2,6.17C844.75,847.4,843.3,849,839.63,848.81Z" transform="translate(-40.91 -174.91)"/><path class="cls-1" d="M602.88,1026.84c-21.47,11.8-42.49,24.3-62,39.12-1.79,1.36-3.27,2.3-5.65.46A460.22,460.22,0,0,0,474,1027a5.72,5.72,0,0,1-2-1.66c40.65,1.17,81.26,1.66,121.87.52C596.88,1025.9,600.12,1024.21,602.88,1026.84Z" transform="translate(-40.91 -174.91)"/><path class="cls-3" d="M449.58,1023.27a33,33,0,0,1,15.78,4.29c23.91,12.82,47.55,26.07,68.73,43.21,2.65,2.14,4.54,2.26,7.29.12,22.4-17.46,46.89-31.5,72.26-44.11,3.9-1.94,7.83-3.24,13.08-2.45-9.91,5.15-19.16,9.89-28.35,14.75-19.87,10.53-39.08,22.12-56.56,36.34-3.19,2.59-5,2.37-8.29-.31-19.29-16-41-28.24-62.93-40.23-5.09-2.8-10.39-5.21-15.55-7.9C453.2,1026,451,1025.56,449.58,1023.27Z" transform="translate(-40.91 -174.91)"/><path class="cls-3" d="M854.4,849.09c2.37-6.87,4.58-12.77,6.4-18.78.75-2.46,2.2-2.42,4.13-2.34,10.45.44,20.91.74,31.35,1.27,2.35.12,5.74-.2,6.16,2.93.44,3.29-2.57,5-5.27,5.73-9.88,2.84-19.82,5.43-29.76,8.06C863.45,847,859.44,847.89,854.4,849.09Z" transform="translate(-40.91 -174.91)"/><path class="cls-3" d="M221.08,847.11c-12.86-3-25.13-5.58-36.93-10-2.4-.89-4.75-2.47-4.25-5.4.47-2.73,3.37-2.36,5.33-2.56a251.62,251.62,0,0,1,26.34-1.25c2.38,0,3.84.64,4.21,3A58.19,58.19,0,0,0,221.08,847.11Z" transform="translate(-40.91 -174.91)"/><path class="cls-4" d="M602.88,1026.84c-2.86-1.72-6.09-.15-9-1,3.11-1.47,6.54-1,9.61-.63C605.91,1025.54,603.42,1026.34,602.88,1026.84Z" transform="translate(-40.91 -174.91)"/><path class="cls-2" d="M359.17,703.67c10.64,7.58,26.9,5.85,36-3.73,3.42-3.6,2.65-6.54-2.28-8-6.59-1.93-13.49-1.92-20.25-2.78-17.95-2.3-24.25-9-26.78-27.11-2.75-19.68.39-37.77,12-54.12,2.1-3,4.16-6.06,8.2-7.54,1.18,5.63.49,11.31,1.78,16.8a80.9,80.9,0,0,0,4.95,14.59c5.24,11.69,14.25,16.39,26.85,15.45a54.24,54.24,0,0,0,25.76-8.5c2.84-1.82,5.33-4,6.31-7.47a6.31,6.31,0,0,0-1.56-6.47c-1.84-1.88-4.06-2-6.47-1.12-3.17,1.18-5.74,3.33-8.56,5.09-11.23,7-23.73,2-26.6-11a46,46,0,0,1,1.3-25.11c.53-1.56,1.1-3.47,3-3.62s1.87,1.94,2.54,3.2a8.21,8.21,0,0,0,5,3.84,26.19,26.19,0,0,0,17.15-.24c1.82-.65,4.26-1.28,4.5-3.48s-1.83-3.4-3.5-4.51c-3.51-2.31-7.49-3.57-11.43-4.91-4.55-1.54-9.25-2.68-13.55-5-7.41-3.93-10.37-10-9.07-18.19,1.67-10.53,6.87-19.46,13.13-27.69a182.77,182.77,0,0,1,33-33.24c.77-.6,1.63-1.09,2.55-1.7.61,1.65-.28,2.73-.81,3.87-8,17.58,4.35,36,23.73,35.26,4.16-.16,8.32-.26,12.48-.5,10.75-.62,15.79,13.11,14.28,20.11-.17.77-.39,1.71-1.43,1.74s-1.31-.9-1.72-1.59c-2.45-4.05-6.19-5.86-10.75-6.32-8.41-.84-12.25,2.38-14.85,11.37-1.12,3.88.81,6.4,4.92,7.06a24.15,24.15,0,0,0,9.44-.38c14.22-3.42,26.87-9.9,36.92-20.69,10.53-11.3,10.51-23.19.32-33.06-2.16-2.1-4.46-4.19-7.79-3.73-2.15.3-3.17,2.16-4.58,7.8-6.12-11.12-15.13-20-16.43-33.05-1-10,2-18.69,9.34-25.22,19.74-17.65,35.3-38.44,48-61.54,1.24-2.26,2.22-3.55,3.81-.32,7.85,16.05,19.88,29,31.17,42.57a96.85,96.85,0,0,1,21.49,48.7c1.53,10.45-7.66,28-18.2,33.86,2.63-6,.81-10.51-2.78-14.65-3.75-4.33-9.1-5.91-13.36-3.84-4.54,2.21-7.24,8.29-5.88,13.65a15.78,15.78,0,0,0,8.81,10.88c11.68,5.54,23.74,6.3,35.87,1.94,10-3.59,12.4-9.59,7.72-19.17-4.19-8.57-4.19-16.62,1.56-24.4a21,21,0,0,1,3.41-3.64c2.54-2.12,5.05-5.46,8.26-5.2,4.3.35,2.48,5.18,3.55,7.89,5.52,13.89,13.2,26.17,25.37,35.16q25.49,18.84,29.38,50.17c.56,4.57,1.44,10.5-3.33,12.6s-9.36-1.54-12.65-5.17c-3.11-3.43-5.51-7.49-8.24-11.27-2.36-3.27-5.12-5.78-9.61-4.65s-6.6,4.25-7.49,8.45c-1.74,8.2,6.24,21.91,14.26,24.73,2.84,1,4.85-.17,6.63-2.13,2.33-2.55,4.9-2.9,7.4-.54,8.35,7.87,12.86,17.26,10.88,29-.32,1.88-.31,4.34-2.56,5-2.48.72-4-1.25-5.27-3-2.54-3.59-5.85-5.46-10.25-4.74s-7,3.06-6.9,7.72c.13,4.44,2,7.78,6.69,8.69a13.66,13.66,0,0,0,5.44-.11,86.61,86.61,0,0,0,25.5-9.81c9.82-5.82,11.89-14.15,6.45-24.22,5.51.36,15.69,12.34,21.86,25.35,10.37,21.87,10,43.78.7,65.89-1.49-7.4-4.41-13.86-10.14-18.79a29.25,29.25,0,0,0-5.25-3.76c-4.3-2.28-8.84-3.49-13.16-.22-4,3-4.72,7.56-4.14,12.16a45,45,0,0,0,2.36,9.16c5.74,16.36,20.52,20.25,34,9,1.27-1.06,2.59-2.07,5.09-4.07a160.42,160.42,0,0,1-13.06,27c-10.57,17.93-21.54,35.66-36.13,50.72-10,10.32-21.71,18.66-33,27.43-24,18.6-50.61,31.07-81,35-24.14,3.15-47.5-.1-70.17-8.37-45.38-16.53-83.47-43.14-112.11-82.44A98.18,98.18,0,0,1,359.17,703.67Z" transform="translate(-40.91 -174.91)"/><path class="cls-2" d="M683.85,447.2c-6.11-2.58-12.24-5.12-18.32-7.76-2.11-.91-3.14-.63-3.94,1.8a40.84,40.84,0,0,1-7.61,13.3c-5.08,6.14-11.64,7-18.89,6.49-3-.21-1.93-2-1.61-3.46,2.59-12,8.55-17.74,20.74-20.06a8.85,8.85,0,0,0,1.45-.59c-1.73-2.39-5.65-.58-6.75-3.78-.49-.41-.46-.8.07-1.15a40.5,40.5,0,0,1-14.56-26.87c-.2-1.63-1-3.73.3-4.76,1.61-1.26,3.5.25,5.08,1.06,11.12,5.7,15.8,15.86,18,27.29.94,4.79,2.33,7.63,7.58,8.71,5.08,1.06,9.88,3.52,15.23,5-5.73-5.22-9.36-11.43-10.17-19-.43-4-.22-8-.51-11.95s1.47-3.74,3.93-2c10.22,7.25,15.16,17.38,16,29.7a17.6,17.6,0,0,1,.07,3c-.39,3.88.93,6.22,4.8,7.94,5.27,2.33,10.1,5.66,15.68,8.41-8.15-10.91-8-22.73-4.53-35.59,9.25,6.6,14,15.27,14.9,26a52.11,52.11,0,0,1-.05,13c-1.06,6.14,4.38,6.75,7.17,9.52,3,3,6.51,5.53,9.84,8.31a4.17,4.17,0,0,0-.42-3.47c-4.52-9.29-2.7-18.45.57-27.6,1.3-3.62,2.74-2.87,4.72-.47,9.22,11.19,10.17,23.86,6.61,37.24-.81,3-.59,5.05,1.82,7.43,4.34,4.3,8.14,9.15,12.65,13.68-1.82-6.91-1.93-13.71.42-20.35,1.52-4.29,2.29-10.7,6.93-11,2.74-.18,4.46,6.59,6,10.61,3.86,10.29,1.71,20-3,29.36-1.49,2.93-1.29,5,.51,7.63,3.73,5.46,7.09,11.18,11.14,16.86-3.15-14.12,3.13-24.37,12.63-33.59,8.33,14.45,6.2,27.53-4,42.57-1.73,2.56-2.1,4.25-.79,7,2.82,6,5.2,12.15,8.17,18.4-.78-13.44,6.22-22.14,16.79-29,4.78,8.36,5.36,16.63,1.12,25-3,5.94-6.22,11.82-11.85,15.82-1.2.85-1.83,1.67-1.38,3.3,1.7,6.18,3.25,12.4,5.18,19.82,1.39-3.75,2.34-6.34,3.31-8.92,3-7.91,8.82-13.15,16-17.14,2.47-1.36,4-1.8,4.32,2.14,1.55,16.74-4,29.72-19.17,37.87-1.37.74-2,1.44-1.88,3,.67,6.06,1.27,12.13,2,19.7,4.15-11.9,12.43-16.61,22.82-18.59,2.5-.47,3.43-.21,3.29,2.85-.64,14.21-8.46,24.65-22.56,29-2.83.87-3.94,2.1-4.16,5.06-.41,5.46-.2,11-1.5,16.45.48-.12.94-.1,1-.27,5.54-10.95,15.64-12.29,26.29-12.65,3.26-.12,2.51,1.4,2,3.39-3.72,14.5-12.76,22.54-27.69,24-3.12.3-4.22,1.27-4.81,4.26a66.12,66.12,0,0,1-4.52,14.46,1.68,1.68,0,0,0,2.38-.27c7.22-7.8,16.18-8.16,25.81-6.33,3.45.66,4,1.79,2.55,5-5.71,12.26-17.28,19.1-31.24,17.51-4-.45-5.69.59-6.86,4.15s-2.78,6.75-4.19,10.12c-.23,1.12-.19,2,1.34,1.38,9.28-5.73,18.45-3.62,27.66.29,2.78,1.18,1.86,2.49.64,4.07-8.74,11.36-17.77,16.07-32.6,12.19-5.07-1.33-7.78-.74-10.12,4-1.65,3.36-4.37,6.2-6.8,9.5.76.22,1.27.56,1.54.42,10.12-5.23,18.94-1.62,27.69,3.74,4,2.45,3,4.24.19,6.66-10.2,8.74-21.46,10.36-33.31,4.23-4.53-2.35-7.39-2.22-10.39,1.89-1.93,2.64-4.41,4.88-7.7,8.45,12.47-3.1,20.61,2.31,28.1,9.61,2.41,2.35,2.85,3.69-.5,5.76-11.86,7.32-21.65,7.3-33.73-1.68-4.46-3.32-7.54-3.73-11.28.34-1.31,1.43-3.08,2.46-5.6,4.42,13.57-.66,20.67,7.56,27,16.67,3.26,4.66,2.9,5.14-2.56,7.1-12.45,4.48-22.44.08-31.14-8.73-1.87-1.89-3.46-4-5.17-6.09-.72-.87-1.18-2-2.76-1.21-1.42.71-1.39,1.62-1,2.85,3.28,9.32-1.45,15.31-8.56,20.18a48,48,0,0,1-20.79,8,31.08,31.08,0,0,0-13.29,4.93A50.89,50.89,0,0,1,643.36,871a25.7,25.7,0,0,0-10.59,2.35A56.3,56.3,0,0,1,609,878.14c-6.89-.11-13.07,3.59-19.9,4.25a46.88,46.88,0,0,1-12.41,0,35.53,35.53,0,0,0-14.83.32,47.64,47.64,0,0,1-22.77.43,20.69,20.69,0,0,0-8.93,0c-9.1,1.86-17.91.42-26.58-2.22a15.64,15.64,0,0,0-7.85-.73c-7.07,1.48-14.05.51-20.72-1.52a59.61,59.61,0,0,0-18.13-2.5c-3.2,0-6.52-.12-9.34-1.39-11.27-5.09-23.55-6.46-35.16-10.09-8.95-2.81-17.59-6.6-26.8-8.87-6.17-1.51-11.42-5.28-16.46-9.19s-8.29-8.64-8.53-15.11c-.09-2.41-.83-4.08-3.23-5-2.62-1-3.08,1.4-4.19,2.56a58.25,58.25,0,0,1-15.08,11.38c-8.44,4.47-16.49,2.33-24.38-1.45-2.81-1.34-.54-3.14.2-4.44,6.3-11,15.58-16.45,29.19-16.79-3.52-3.19-6.64-6-9.7-8.83-1.37-1.28-2.12.08-2.91.67A59.9,59.9,0,0,1,320,815.37c-9.45,4.41-18.09,2.47-26.43-3-3.5-2.29-3.95-4.22-.56-7.22,8.63-7.63,13.94-9.47,27.39-8.43-2.65-4.82-6.49-8.27-9.67-12.18-1.34-1.65-3.1-.09-4.58.47-6.56,2.51-13.11,4.75-20.37,3.24-6.92-1.44-12.09-5.29-16.19-10.84-.73-1-1.83-1.69-.11-3.14,9.58-8,21.05-9.12,31.8-3.13-3.09-5.32-6.11-10.67-9.28-15.93-1.3-2.16-3.08-.29-4.44,0-14,3.26-25.27-.91-33.19-12.42-3.34-4.85-3.26-5.11,2.12-6.86,10.9-3.57,14.12-3.2,27.49,3.55-2.5-6.24-4.68-11.63-6.82-17-.53-1.33-1.51-.85-2.49-.83-15.32.33-26.74-5.47-32.56-20.43-1.13-2.91-1-4.06,2.38-4.49,10.72-1.35,20.22.35,27.83,11.06-1.64-7.62-2.94-13.82-4.34-20-.45-2-2.33-1.48-3.71-1.77-13.79-2.86-22.95-10.82-26.87-24.47-1.51-5.28-.87-6.1,4.44-5.39,9.37,1.26,18,4,22.31,13.59,1.57-.47,1.66-.84.94-3.81,1-9.42-.53-16.51-10.93-21-9.91-4.23-14.27-13.9-15.34-24.7-.59-5.9,0-6.48,5.71-4.52,8.19,2.82,14.81,7.48,18.22,15.83a16.85,16.85,0,0,0,1.19,2.16c.05.09.28.08.75.2a21.65,21.65,0,0,1,.28-3.74c2.53-10.19.85-18.19-8.67-24.87-9.05-6.36-10.06-17.08-9.83-27.53.08-3.82,1.51-4.6,4.91-2.5,8.58,5.29,15.94,11.42,17.87,22.41,1.71-6.46,3.39-12.93,5.15-19.38.56-2.06-1.25-2.5-2.2-3.44-9.56-9.45-14.54-20.52-12.23-34.19.35-2,.07-4.92,2.29-5.59s3.78,1.65,5.35,3.09c7,6.48,11.48,14.2,12.09,24.33,2.81-6.24,5.57-12.51,8.48-18.7.93-2-.68-2.66-1.47-3.77-8.25-11.69-11.5-24.22-6.41-38.13.49-1.35.62-3.4,2.19-3.69s2.54,1.32,3.48,2.49c5.89,7.32,10.22,15.2,8.9,25.09-.66,2.95-.61,3.09,1.05,3.09,3.14-4.9,6.14-9.9,9.47-14.67,1.76-2.53,1.67-4.58.33-7.27-6.07-12.15-7.07-24.49-.56-36.87.84-1.6,1.61-3.91,3.39-4s2,2.37,2.83,3.74c5.64,9.28,7.58,19.07,4.09,29.8q7.25-8.13,14.5-16.25c1.26-1.43.18-2.94-.22-4.23a50.38,50.38,0,0,1-1.82-20.7c.73-6.89,4.27-12.5,8.32-17.84,1.72-2.26,2.87-1.64,3.66.73,3.13,9.37,6.28,18.74,1.4,28.52a4.51,4.51,0,0,0-.31,1.44c0,.11.2.25.71.87,5.11-3.66,10.29-7.34,15.43-11.07,1.3-.94.17-2.13.12-3.21-.37-7.81-1-15.63,1.6-23.25a29.11,29.11,0,0,1,12.68-16.13c3.48,13.06,4.1,25.14-6.24,36.79,7.67-3.91,14.09-7.22,20.53-10.46,1.82-.92,1.23-2.53,1.3-3.94.29-6.16.88-12.27,2.83-18.17,2.28-6.95,6.8-12.07,12.83-16.05,3.06-2,4.08-1.06,4.05,2.26-.11,11.43-.78,22.66-10.8,30.9,7-1.76,13.43-4.46,20.23-5.89,2-.42,1.5-2.32,1.72-3.73,1.49-9.76,4.76-18.67,12.06-25.7a20.13,20.13,0,0,1,8.56-4.93c1.78-.52,3.07-.5,2.83,1.83-1.17,11.07-2.66,22-13.46,28.55-.81,1.59.16,1.42,1.18,1.19,4.79-.59,9.56-1.34,14.37-1.71,2.94-.22,3.37-2.22,3.91-4.34,1.48-5.86,3.56-11.41,7.51-16.14a21.25,21.25,0,0,1,10.64-7.05c2.45-.72,4-.41,3.5,2.62-1.71,9.38-4.24,18.28-14.24,22.4a5,5,0,0,1-2.83,2.83l-3.43.43c10.32,2.5,15.17,9.81,17.27,19.48,1.16,5.31.35,6.1-5.07,5.17a15.28,15.28,0,0,1-9.95-6.1,37.37,37.37,0,0,1-6.76-14.87c-.39-1.83-.65-3.21-3-2.74-6.82,1.35-13.66,2.61-20.64,4.32,12.9,1.24,19,9.46,22.2,20.73,1,3.48.46,5.12-3.73,5a20.29,20.29,0,0,1-15.06-6.59,38.61,38.61,0,0,1-7.33-11.23c-3-6.87-3-6.93-10.27-4.28-4.36,1.59-8.66,3.38-13,5.08-1,1.4.29,1.18,1,1.27,1.62.22,3.31-.35,4.88.42,9.73,2,13.83,9.63,17.57,17.58,1.23,2.6-.77,3-2.69,3.46-8,2.05-14.75,0-20.48-5.88-2.8-2.88-5.61-5.79-7.3-9.43-1.2-2.58-2.46-3.18-4.91-1.72-5.94,3.52-11.94,6.94-19,11a42.33,42.33,0,0,0,4.29,0c10.28-1.34,18.26,2.77,23.59,12,1.52,2.63,1.25,4-1.73,5.24-10.31,4.36-21.06,1.72-28.95-8.08-2.95-3.66-4.85-4.15-8.4-.88-4.88,4.49-10.44,8.23-15.48,13.95,2.65-.92,4.46-1.57,6.28-2.18,8.18-2.7,20.21,1.51,24.9,8.64,1.25,1.91.4,2.71-1.19,3.91-9.72,7.33-20.45,7.42-30.71-.95-4.37-3.56-6.46-3.17-9.49,1.24C322,498.64,317.88,503,314.39,508c4.8-2.43,9.39-4.7,15-4.27,6,.45,10.69,3.41,15.36,6.6,2.54,1.73.08,2.88-.82,3.83-8.48,9-19,11.17-31,5.24-4.81-2.39-6.32-1-8.4,2.88-2.64,5-6,9.54-8.27,14.8,1.32.62,1.89-.43,2.51-1,8.37-7.66,18.28-5.4,26.69-2,2.83,1.14,1.56,2.69.55,4.27-6.61,10.33-17.39,15-29.84,11.93-5.24-1.31-7.4.05-8.88,4.8-1.61,5.18-4.28,10-5.08,15.89,6.09-9.34,15.09-10.81,24.95-10,6.33.51,6.69,1.27,3.72,6.76-6.1,11.23-15.5,16.68-28.25,15.78-4.23-.3-6,1.23-6.66,5.24-.83,5.08-2.06,10.09-3.12,15.13-.11.87-1.21,2.2.94,2,6.25-11.37,16-16.22,28.95-14.42-2.45,15.21-13,25.73-28.06,27.34-3.1.34-4.32,1.22-4.51,4.27-.36,5.46-1,10.91-.39,16.48,1.83-.26,1.75-1.88,2.25-2.94,4.25-9.06,11.88-13.43,21.21-15.71,3.86-.94,4.2.82,3.8,3.85-1.84,14-9.75,23.46-22.59,28.61-4,1.6-5.4,3.33-4.72,7.52.78,4.74,1,9.58,1.39,14.39,1.56-.08,1.44-1.31,1.62-2.17,2.52-11.6,10.67-17.94,20.84-22.4,3.85-1.69,2.83,1.75,2.88,3.11.47,12.84-4.24,23.35-14.57,31.19-8.26,6.28-8.25,6.3-5.31,16.69.5,1.76,1,3.52,1.51,5.28.59.74,1.18,2.49,1.78,0,.66-12.12,7.54-20.19,17.08-26.67,2.55-1.73,2.87-.66,3.29,1.63,2.76,14.93-1,27.8-12.45,37.9-3.19,2.82-4.07,5.08-2.09,8.84s3.58,7.83,5.89,11.81c.29-6.35.06-12.75,3.17-18.49s6.83-11,12.56-14.85c5.87,14.33,5.69,28-3.76,40.22-4.43,5.73-4.85,10.21-.18,15.54,1.81,2.08,2.56,5,5.65,7.3-4-13.45.52-24.36,7.47-34.73,1.94-2.9,2.81-2.64,4.45.49,7.75,14.71,5.84,29-1.8,42.88-1.59,2.88-1.49,4.61.76,6.84,2.94,2.9,5.56,6.11,8.24,9.11,1.15-.57,1-1.33.77-1.82-5.5-12.2-1.46-23.35,3.5-34.51,1.54-3.44,2.75-2.5,4.31-.31,7.55,10.62,10.35,22.19,7,35-.12.48-.36.93-.5,1.41-3.64,12.75-3.64,12.75,8.79,20.15a6.7,6.7,0,0,0-.33-2c-6.66-11.88-3.13-23.13,1.94-34.37,1.81-4,3.29-3.45,5.81-.51,9.2,10.74,10.62,22.9,7.06,36.08-.39,1.44-.86,2.86-1.27,4.3,0,.13.11.3.32.8,8.89-6.35,18.72-6.88,28.91-4.43,9.83,2.36,18.94,6.35,26.5,13.23a12.31,12.31,0,0,0,4.71,2.39c9.9,3.55,20,4.56,30.51,4.09,7.87-.35,15.41,2.63,22.27,6.53,3.78,2.16,7.79,2.38,11.81,3.28,7.86,1.76,15.17.18,22.78-1.4,9.68-2,19.23,0,28.35,3.54a14.73,14.73,0,0,0,8.17,1.1c3.93-.65,7.93-1.1,11.9-.19a7,7,0,0,0,5.24-.95c11.3-6.38,23.46-7,35.85-4.77a26.21,26.21,0,0,0,10.26-.43c7.46-1.5,14.28-3.7,20.84-8.1s14.92-5.42,23-5.77a18,18,0,0,0,6.79-1.29c14.35-6.4,29-9.85,45.28-3.24a87.89,87.89,0,0,1-2.93-20.45c-.23-10,4.54-17.44,11.07-24.23,2.14-2.22,3.23-1.94,4.34,1,2.2,5.92,4.7,11.69,5,18.16a27.85,27.85,0,0,1-5,17.41l.8,1.05c3.75-2.47,7.57-4.86,11.23-7.47,1.63-1.15.37-2.76,0-4.1-2.11-7.24-3.48-14.55-2.78-22.15.75-8.11,4.26-14.94,9.5-21,1.52-1.75,2.77-2.12,3.87.49,4.89,11.6,8.14,23.25.74,36.6,6-3.42,9.24-7.68,12.65-11.71,1-1.2-.42-2.44-.94-3.59A67.29,67.29,0,0,1,751,767c-2-11,.93-20.72,7.69-30C766,748,772,759,767.86,773.05a52.65,52.65,0,0,0,9.81-12.57c.77-1.31-1.08-2.63-1.84-3.85-4.19-6.83-8.23-13.64-9.06-21.91-.67-6.66.78-12.83,3-19,1.09-3.11,2.42-2.8,4.06-.87,6.88,8.11,13,16.58,12.11,28.06-.69,2.42-.63,2.63.88,3a12.87,12.87,0,0,1,.69-1.33c5.31-7.8,7.78-14.5-.92-22.76s-10.31-20.07-7.89-32.11c.74-3.64,2-3.67,4.41-1.78,9.36,7.41,16.48,16.07,15.77,29.2,1.62-2.07,6.26-15.52,6.21-17.34,0-2.2-2-2.46-3.29-3.34-11.3-7.88-18.46-18.1-18.66-32.35,0-2-.69-4.45,1-5.63,1.87-1.31,3.73.64,5.35,1.62,9.35,5.63,16.64,12.82,17.91,25.38,2.91-7,2.42-13.58,3-19.93.2-2.26-2.4-1.81-3.76-2.39-13.57-5.77-21.34-16-23.46-30.51a29.78,29.78,0,0,1,0-4.14c12.69,2.93,23,8.33,27.2,21.77.86-6.34.2-12.35,0-18.38-.14-3.44-2.61-2.94-4.5-3.34-16-3.36-24.91-13.55-28.65-29.47,13.53.26,24.31,4.59,30.6,17.33-.17-7.39-2.43-14.23-4.06-21.18-.46-1.93-2.35-1.56-3.75-1.77-3.61-.54-7.31-.69-10.85-1.55-10.6-2.56-16.88-10-21.31-19.46-1.55-3.29.64-3.25,2.75-3.37,10.8-.65,20.61,1.2,27.49,11.88.74-3.14-.48-4.95-1.17-6.75-1.6-4.19-3.63-8.22-5.09-12.45-1-2.89-2.15-3.75-5.37-3-13.25,3.06-23.78-1.4-32-12.12-2.73-3.57-2-5.21,2.1-6.43,9.8-2.89,18.58-1.17,26.66,5.41-2.46-7-6.8-12.88-10.47-19-1.07-1.8-3.47,0-5,.67-11.52,4.73-21.77,2.92-30.94-5.49-4.42-4-4.38-4.61.73-7.39,8.48-4.62,16.89-5.46,26-.3-4.32-5.73-8.52-11.56-13-17.15-1.62-2-2.88.32-4.07,1.2-10.81,8-22.13,8.25-32.29.85-3-2.19-3.59-3.74-.43-6.37,8.59-7.17,17.62-9.89,28.49-2.59-2.44-4.49-15.84-16.84-18.62-18.17-1.78-.85-2,.62-2.68,1.28a61.58,61.58,0,0,1-8.25,7.22,22.58,22.58,0,0,1-24.91,0c-2.88-1.88-.81-3.2.08-4.33,6.54-8.41,14.17-14.3,26-10.22A74.34,74.34,0,0,0,694.07,453c-2.12-.92-2.2,1.45-3,2.53-4.64,6.41-9.51,12.5-18,13.88-4.56.74-10.21,1.06-12.45-2.53-1.86-3,2.17-7.19,4.55-10.35A20.32,20.32,0,0,1,676,448.87c2.61-1,5.49.4,8.07-.84.08,0,.11-.29.08-.42A1.71,1.71,0,0,0,683.85,447.2Z" transform="translate(-40.91 -174.91)"/><path class="cls-5" d="M625.94,429.07c-13.88-7-20.72-17.07-19.62-28.94,9.15,1.68,15,7.3,18.87,15.39a19.08,19.08,0,0,1,2,5.06c1,6.22,4.41,9.43,10.68,9.62,0,1.82-1.08,1.26-2,.87-3.19-.73-3.24,1.59-3.88,3.7-2.51,8.33-5.91,16-15.39,18.61-2.14.6-4.61,1.4-6.25.17-2-1.51-.43-4.09.06-6,2.1-8.33,5.83-15.29,15.5-16.62C628.39,430.32,626.69,429.69,625.94,429.07Z" transform="translate(-40.91 -174.91)"/><path class="cls-6" d="M573.15,358c0-4.83.07-9.65,0-14.48,0-3.22,1.18-5.09,4.6-5.09,4.66,0,9.32,0,14,0,3.06,0,4.48,1.56,4.46,4.68q-.07,15,0,30c0,3.39-1.6,4.88-4.83,4.89-4.5,0-9,0-13.48,0-3.27,0-4.81-1.65-4.74-5C573.23,368,573.15,363,573.15,358Z" transform="translate(-40.91 -174.91)"/><path class="cls-7" d="M541.16,358.31c0,4.82-.14,9.64.05,14.45.14,3.62-1.38,5.25-4.92,5.24-4.32,0-8.64,0-13,0-3.26,0-4.94-1.32-4.92-4.74q.09-15.21,0-30.42c0-3.23,1.7-4.44,4.68-4.43,4.48,0,9,0,13.46,0,3.32,0,4.77,1.51,4.65,4.92C541,348.33,541.16,353.32,541.16,358.31Z" transform="translate(-40.91 -174.91)"/><path class="cls-6" d="M499.79,372.42c3.86,0,6.78,0,9.7,0,2.06,0,4.43-.63,4.42,3S511.58,378,509.8,378c-5,.07-10,0-15,0-4.29,0-5.19-1.61-2.76-5.42,4.11-6.44,8.46-12.72,12.68-19.09,1-1.5,2.3-2.89,2.08-4.92s1-5-3-4.75c-2.81.15-6-.6-5.25,4,.46,2.83-1.16,3.23-3.54,3.21s-3.94-.23-3.64-3.16a43.51,43.51,0,0,0,0-5c0-3.16,1.62-4.51,4.64-4.5,4.32,0,8.65,0,13,0,3.25,0,4.71,1.55,4.86,4.89.23,5.14-.48,9.74-3.84,14C506.49,361.82,503.55,366.82,499.79,372.42Z" transform="translate(-40.91 -174.91)"/><path class="cls-6" d="M554.68,372.42c4.07,0,7.19,0,10.31,0,2,0,3.57,0,3.64,2.78s-1.4,2.87-3.45,2.83c-4.82-.07-9.65.06-14.48-.06-1.52,0-3.63,1-4.48-.87s.1-3.8,1.3-5.55c4-5.9,8-11.88,11.92-17.84.91-1.37,2.24-2.66,1.93-4.46-.36-2.05,1.67-5.38-2.82-5.42-3.13,0-6.25-.45-5.42,4.4.56,3.27-1.88,2.66-3.83,2.81-2.35.18-3.41-.64-3.17-3.09a37.35,37.35,0,0,0,0-4.49c-.07-3.24,1.37-5,4.73-5,4.33,0,8.66,0,13,0,3.37,0,4.57,1.66,4.78,4.94.35,5.37-.71,10.08-4.07,14.45S558.28,367,554.68,372.42Z" transform="translate(-40.91 -174.91)"/><path class="cls-7" d="M452,429.79c.76-1.13,1-2.73,2.83-2.83,3.14,2.14,6.27,1.07,9.14-.39,9.25-4.73,14.9-3.49,21.37,5-8.63,6.16-15,6.24-22.84-.26C459.14,428.5,455.55,430.07,452,429.79Z" transform="translate(-40.91 -174.91)"/><path class="cls-8" d="M649,432c0,.38,0,.77-.07,1.15-2.95,1.53-5.59.1-8.27-.87.14-.73.85-.79,1.31-1.15C644.33,431.24,646.54,432.6,649,432Z" transform="translate(-40.91 -174.91)"/><path class="cls-9" d="M683.85,447.2l2.23.86,0,.81H676C678.25,446.69,681.5,449.09,683.85,447.2Z" transform="translate(-40.91 -174.91)"/><path class="cls-10" d="M399,445.91h-8.2c.46-1.46,1.52-1.41,2.37-1.69C394.86,445.81,397.43,444.21,399,445.91Z" transform="translate(-40.91 -174.91)"/><path class="cls-11" d="M642,431.12l-1.31,1.14c-1.63-.24-3.39,0-4.78-1.19l2-.87Z" transform="translate(-40.91 -174.91)"/><path class="cls-12" d="M295.93,529a2.71,2.71,0,0,1-1.77,2.27,7.33,7.33,0,0,1,.72-5.36C295.28,526.87,294.71,528.22,295.93,529Z" transform="translate(-40.91 -174.91)"/><path class="cls-13" d="M265.1,666c1.18,1.23.78,2.81.91,4.26.06.71-.24,1.42-1.14.79-.35-.25-.48-.82-.71-1.24C265.55,668.76,264.57,667.17,265.1,666Z" transform="translate(-40.91 -174.91)"/><path class="cls-14" d="M786.78,745.85c-.2.74-.32,1.74-1.26,1.7s-.56-1-.48-1.5a29.1,29.1,0,0,1,.86-3.17C786.28,743.84,785.76,745.08,786.78,745.85Z" transform="translate(-40.91 -174.91)"/><path class="cls-15" d="M625.94,429.07a3.8,3.8,0,0,1,3.37,1.82h-3.4Z" transform="translate(-40.91 -174.91)"/><path class="cls-16" d="M279.89,706.94a4.59,4.59,0,0,1-.25,3.29,3.71,3.71,0,0,1-1.53-3.29Z" transform="translate(-40.91 -174.91)"/><path class="cls-17" d="M796.14,745.09c-.59,1-1.7,2.31-2.45,1.62-1-.92.46-2.05,1.11-3Z" transform="translate(-40.91 -174.91)"/><path class="cls-18" d="M273.81,605.85c-.17.78-.78,2-1.21,1.66-1.27-1.09-.51-2.46.27-3.64Z" transform="translate(-40.91 -174.91)"/><path class="cls-19" d="M429.17,431.18a3.13,3.13,0,0,1-3.12.68c0-1.35,1-1.58,1.94-1.87Z" transform="translate(-40.91 -174.91)"/><path class="cls-2" d="M570.09,951.86c0-10.82.16-21.65,0-32.47,0-3.08.44-4.33,3.95-4.33,10.6,0,10.65-.18,11,10.49.68,21.79,1.2,43.58,2.06,65.36.18,4.62-.84,6-5.81,6.35-6.85.5-10.12-2.19-12.79-8-5.17-11.34-11-22.39-16.52-33.55a10.79,10.79,0,0,0-3-4c0,13.56-.18,27.12.11,40.68.09,4.12-1.05,5.27-5.14,5.4-10.56.35-10.61.57-10.54-9.88.16-22.82.46-45.63.48-68.44,0-3.58,1.17-4.06,4.48-4.47,7-.87,10.25,2,12.93,8.25a367.14,367.14,0,0,0,17.78,35.69c1,.91,1.41.39,1.37-.68C570.39,956.12,570.94,954,570.09,951.86Z" transform="translate(-40.91 -174.91)"/><path class="cls-2" d="M448.57,995c-9-.73-17.65-1.56-26.27-2.06-3.58-.2-4.41-1.76-4.14-5q3.06-37.27,5.89-74.57c.15-1.94.48-3.08,2.85-2.91,11.09.84,22.29.71,33.19,3.33,10,2.41,13.67,6.6,13.4,16.79q-.64,24.42-2.26,48.81c-.67,10.05-4.64,13.71-14.63,14.93C453.8,994.58,451,994.75,448.57,995Z" transform="translate(-40.91 -174.91)"/><path class="cls-2" d="M702.17,905.42c12.23.06,17.58,5,18.85,16q2.68,23.28,5.53,46.54c1,8.25-2.72,14.84-10.79,17.41-12.14,3.87-24.86,4.12-37.4,5.46-2.6.28-2.44-1.43-2.58-3.14-1.2-14.24-2.46-28.48-3.65-42.73-.9-10.76-1.62-21.54-2.67-32.29-.27-2.78.33-3.83,3.14-4.1C682.85,907.58,693.09,906.4,702.17,905.42Z" transform="translate(-40.91 -174.91)"/><path class="cls-2" d="M355.9,974.45c1.76-14.76,3.66-30.61,5.53-46.45.81-6.77,1.76-13.53,2.28-20.32.28-3.53,1.93-3.88,4.89-3.59,11.37,1.13,11.54,1.24,10.12,12.81q-3.15,25.74-6.33,51.48c-.24,2-.26,4-.38,6-.1,1.61.6,2.38,2.27,2.54,5.13.49,10.27,1,15.37,1.68,3.28.43,3-2,3.2-3.82,1.45-15.56,2.76-31.13,4.17-46.7.53-5.79,1.22-11.57,1.86-17.35.13-1.1,0-2.67,1.65-2.58a113.93,113.93,0,0,1,12.39,1.2c2,.34,1.14,2.52,1,3.85q-1.62,20.88-3.42,41.77c-.79,9.44-1.5,18.89-2.5,28.31-.61,5.7-2.59,7.69-8.07,7.22-12.24-1.06-24.49-2.32-36.64-4.13C356.11,985.27,355.55,983.8,355.9,974.45Z" transform="translate(-40.91 -174.91)"/><path class="cls-2" d="M243.73,960.11c.33-7.19,2-13,3.49-18.75,1.27-4.75,5.32-1.48,7.49-.9,2.77.74,7.51-1.11,8,4.13.08.79-.49,1.62-.5,2.43-.05,3.89-3.55,9.3-.57,11.22,4.17,2.68,10.14,2.58,15.36,3.58a2.21,2.21,0,0,0,1.67-.79c2.27-2.83,1.84-14.93-.63-17.7q-10.83-12.11-21.7-24.15c-2.08-2.3-3.6-4.89-3.34-8.07.58-7.15,2.39-14.08,4.06-21,.83-3.45,3.92-4.09,6.82-3.56q17.64,3.24,35.22,6.93c4.54.95,6.15,4.13,5.39,8.62-.87,5.08-1.8,10.16-2.49,15.26-.28,2.15-1.09,3-3.21,2.49-.32-.08-.66-.12-1-.21-3.65-1-8.67.06-10.77-2.69-2-2.55.16-7,1-10.49,1-4-.82-4.94-4-5.31-1-.12-2-.23-3-.42-11.1-2.23-11.05-2.23-12.21,9.11a7.33,7.33,0,0,0,2.24,6.25c7.43,7.86,14.62,15.95,22.15,23.73,2.81,2.9,4.06,6,3.48,9.89-.92,6.25-1.92,12.49-2.94,18.73-.71,4.34-3.14,6.46-7.67,5.73-12.31-2-24.63-3.89-36.69-7.14C245.44,965.92,243.19,963.42,243.73,960.11Z" transform="translate(-40.91 -174.91)"/><path class="cls-2" d="M735.07,979.71c2.16-19,4.33-37.77,6.45-56.59.76-6.78,1.48-13.55,2.08-20.34.23-2.5,1.07-3.57,3.81-4.07,12.22-2.24,12.16-2.36,16.83,9.06,8.61,21.05,17.21,42.11,26,63.08,1.34,3.21,1,4.1-2.52,4.57-13.27,1.78-10.87,5.09-15.64-9.08-1-3.09-2.59-3.84-5.41-3.2-.65.14-1.31.23-2,.34-13,2.14-13.06,2.13-14.05,15-.2,2.53-1,3.5-3.5,3.62a41.08,41.08,0,0,0-7.89,1.1C735.87,984.07,734,983.66,735.07,979.71Z" transform="translate(-40.91 -174.91)"/><path class="cls-2" d="M481.7,971.43c.72-17.78,1.49-35.56,2.13-53.34.1-2.81.64-4.13,3.94-4,11.13.53,22.28.88,33.42.94,3.54,0,4.11,1.32,4,4.4-.32,7.31-.19,7.18-7.73,6.8-5.15-.26-10.32,0-15.48-.12-1.94,0-3.1.33-3.14,2.68q-.15,8.48-.69,16.94c-.18,2.88.92,3.74,3.71,3.72,5.15,0,10.31.45,15.45.39,3,0,4,.77,4,3.93-.14,7.26,0,7.26-7.16,7.06-1.83,0-3.66,0-5.5,0-10.45,0-10.5,0-10.95,10.23-.17,3.66.13,7.34-.1,11-.21,3.25,1.27,3.79,4.13,3.84,6.64.11,13.27.72,19.9.87,2.53.06,3,1.11,3.06,3.32.15,7.51,0,7.88-7.69,7.71-10.64-.24-21.27-.79-31.91-1.08-3-.08-4.34-.86-4.15-4.36.37-7,.11-14,.11-20.93Z" transform="translate(-40.91 -174.91)"/><path class="cls-2" d="M814,920.56c1.67-10.51,3.43-21,4.93-31.53.36-2.49,1-4.08,3.73-4.31a26,26,0,0,0,3.4-.77c9.49-2,9.56-2,7.63,7.77-2.42,12.24-4.69,24.51-7.53,36.65-2.19,9.37.45,18.18,2,27.13,2,11.49,2.09,11.27-9.09,13.87-3.82.89-5.41.47-5.65-3.69-.21-3.47-1.18-6.88-1.62-10.34a63.5,63.5,0,0,0-11.08-29c-6.49-9.24-11.81-19.29-17.83-28.87-1.9-3-1.79-4.37,2.06-5.18,11.36-2.4,11.33-2.51,16.87,7.8q5.53,10.29,11.11,20.54Z" transform="translate(-40.91 -174.91)"/><path class="cls-2" d="M325.27,912c.69-2.25-.65-3.1-3.1-3.35a37,37,0,0,1-6.86-1.28c-1.84-.54-4.77.5-5.36-1.66-.78-2.84.29-5.91,1.05-8.8.46-1.72,1.91-1.07,2.92-.92q21,3.06,42,6.27c1.89.28,3,1.07,2.47,3.35a28.47,28.47,0,0,0-.5,5.47c-.09,2.49-1.3,3-3.6,2.55-2.92-.62-5.94-.81-8.85-1.49-3.31-.76-4.77.21-5.2,3.71-2,16.19-4.14,32.35-6.24,48.53-.64,5-1.39,9.89-1.92,14.85-.23,2.13-.93,3.11-3.13,2.41a2.88,2.88,0,0,0-.49-.11c-13.15-1.87-13.16-1.87-11.13-15.25q3.73-24.69,7.5-49.36C325,915.47,325.09,914,325.27,912Z" transform="translate(-40.91 -174.91)"/><path class="cls-2" d="M625.87,984.37c-.12,3.46,1.47,7.47-.47,9.85s-6,.38-9,1.1c-4.89,1.17-6.49-.17-6.61-5.55-.45-20.09-1.6-40.17-2.28-60.27-.14-3.94-1.4-5.44-5.33-4.46a20.55,20.55,0,0,1-4.43.52c-7.7.19-7.61.17-7.36-7.53.08-2.4.63-3.73,3.27-3.86,13.78-.67,27.55-1.48,41.33-2.13,5.65-.27,2.89,4.37,3.65,6.84.72,2.29.41,4.25-2.93,4.22-2.64,0-5.31.84-7.93.68-4.68-.29-5.42,1.94-5.15,6C623.83,948,624.81,966.29,625.87,984.37Z" transform="translate(-40.91 -174.91)"/><path class="cls-20" d="M570.09,951.86c1.33,3,.65,6.16,1,9.45-1.57-.24-1.71-1.35-1.95-2.38C570.9,956.78,569.32,954.16,570.09,951.86Z" transform="translate(-40.91 -174.91)"/><path class="cls-1" d="M422.91,772c10.14-.7,19.51-4,28.44-8.65,3.79-2,6.65-1.46,10,1.2C484,782.76,506.78,801,529.76,818.87c8,6.23,6,6.45,14.44-.19q34.24-27.13,68.45-54.35c2-1.58,3.69-2.56,6.19-1.24,8.63,4.53,18,6.73,27.48,8.65,1.95.4,4.16.59,3.5,3.57-.58,2.49-3.09,2.25-4.67,3.33-1.63.53-3.43.74-4.54,2.32-2.77,2-5.51,4.08-8.86,5.08-1.82.24-3.09,1.41-4.36,2.59a9.27,9.27,0,0,1-2.86,1.56,13.49,13.49,0,0,0-5.41,3.24,6.56,6.56,0,0,1-1.79.71c-2.21.38-3.65,2-5.27,3.32a7.26,7.26,0,0,1-1.85.75c-2.74,1.13-5.11,2.9-7.64,4.39a38.49,38.49,0,0,1-5.17,3c-1,.49-1.94.92-2.87,1.46-1.46.86-2.84,1.85-4.35,2.62a15.15,15.15,0,0,0-4.14,2.81,7.83,7.83,0,0,1-1.83.72,28,28,0,0,0-7.31,4.58,5,5,0,0,1-1,.82,49.17,49.17,0,0,0-4.65,2c-.93.48-1.88.92-2.79,1.46-1.47.88-2.87,1.88-4.4,2.67s-2.79,1.38-4.14,2.16c-2.92,1.2-4.86,4.65-8.68,3.85-1.57-.41-3.09-1-4.66-1.47a26.68,26.68,0,0,0-4.66-1.24,12.51,12.51,0,0,1-1.35-.3,16.86,16.86,0,0,0-8,0,22.25,22.25,0,0,0-3.79,1,11.67,11.67,0,0,1-1.78.77,29.88,29.88,0,0,0-5,1.18,4.37,4.37,0,0,1-2-.06c-2-.8-3.92-2-6-2.61a9.32,9.32,0,0,1-2.27-1.31,11.77,11.77,0,0,0-3.3-1.93,5.74,5.74,0,0,1-1.08-.74,37.81,37.81,0,0,0-5.93-4c-1.91-1.09-3.94-2-5.77-3.23a56.76,56.76,0,0,0-5.79-3.15c-1.94-1.47-4.15-2.51-6.18-3.84a52.54,52.54,0,0,0-8.12-4.22,3.69,3.69,0,0,1-1.16-.61,21.66,21.66,0,0,0-5.9-4,53.21,53.21,0,0,1-5.83-3.21,27,27,0,0,0-6-2.9,5.93,5.93,0,0,1-1.13-.7,15.43,15.43,0,0,0-6-3.59,4.31,4.31,0,0,1-1.13-.63,34.09,34.09,0,0,0-4.81-3.25,63.51,63.51,0,0,0-5.74-3.1c-2-1.47-4.19-2.52-6.23-3.85a48,48,0,0,0-6.07-3.18C423.78,775.48,421.87,774.54,422.91,772Z" transform="translate(-40.91 -174.91)"/><path class="cls-21" d="M616.67,793.17l2.52-.25c1.3-1.58,3.8-1.72,4.67-3.85l2.78-1.06c1.86-.34,2.85-1.91,4.22-3,3.61-.76,6.34-3.08,9.19-5.18a22.29,22.29,0,0,1,4.82-1.64c1-2,3.42-1.75,5-2.93,1.72.07,3.76-2.71,4.82-.61s-2,2.6-3.38,3.48c-29.71,18.33-60.18,35.37-90.26,53.07-4.33,2.55-8.3,3.61-13.54,2.31-6.76-1.67-13.92-1.1-20.84,0a19.31,19.31,0,0,1-13.42-2.2Q466.46,804.13,419.67,777c-1.05-.61-3.53-.92-2.15-3s2.9.32,4.4.4c1.29.17,2.2,1.16,3.38,1.58,2,1.16,4.07,2.33,6.14,3.44,1.88,1.12,3.79,2.19,5.67,3.32,2,1.44,4.38,2.17,6.32,3.67,1.89,1.21,4,2.08,5.62,3.71l-.11-.08a19.68,19.68,0,0,1,7.11,4.08l-.11-.09a30.92,30.92,0,0,1,6.48,3.37c1.85,1.29,4,2,5.88,3.25a30.43,30.43,0,0,1,6.75,4.47l-.11-.08c3.05.91,5.54,2.91,8.34,4.29,1.92,1.14,3.87,2.23,5.78,3.37a69.49,69.49,0,0,0,6.3,3.68c1.95,1.1,3.83,2.32,5.86,3.28,2.31,1.43,4.8,2.59,6.83,4.46L508,824c1.32.79,2.95,1,4.14,2l2.09,1.05c2,1.15,3.69,2.95,6.25,2.92h1.11c1.84.15,3.52-.8,5.34-.81l.75-1.19c2.45,0,4.77-1,7.23-1,1.95,0,3.9-.07,5.85-.07l1.45.12a17.3,17.3,0,0,0,4.9,1.66c1.28.92,3,.87,4.26,1.77,3.84.53,6-2.81,9-4,1.47-1,3.23-1.43,4.53-2.69,1.44-.49,2.54-1.58,3.92-2.19a10,10,0,0,0,3.23-1.92c1.3-.65,2.74-1,4-1.7L576,818c2.21-2.55,5.92-3.12,7.89-6l2.31-.12c1.2-1.33,2.9-1.79,4.4-2.61s2.69-2.09,4.27-2.75a10.25,10.25,0,0,0,3.24-1.93,14.65,14.65,0,0,0,4-2.12c2.42-2.1,5.91-2.67,7.83-5.48l2.3-.12C613.57,795.55,615.57,794.89,616.67,793.17Z" transform="translate(-40.91 -174.91)"/><path class="cls-22" d="M535.29,666.26c-28.36-1.07-52.69-26.32-50.07-56.65,2.49-28.8,28.93-50.88,57.15-48.11,30,3,52.09,28.21,49.41,56.45C589.05,646.75,563.05,669,535.29,666.26Z" transform="translate(-40.91 -174.91)"/><path class="cls-3" d="M516,742c0-2.44-.66-5.08,2.2-6.59,2,5.25,3,5.79,7.8,4.24-1.14-1.52-4.08-1.46-3.72-4,.31-2.23,2.46.08,3.37-1.65.2-1.47-1.9-1-2.61-2-1.51-2.2-.48-3.86.86-5.34,1-1.12,2.94-3.37,3.78-2.11,1.45,2.19,4.45,3.09,4.84,5.94.11.8-4.6,0-.94,2.15,1.9,1.13,3.4-.66,4.23-2.4.4-.86.65-2-.68-2.48-4.79-1.73-2.28-4.6-.89-6.95,1.07-1.8,2.8-3.2,4.26-4.8a17.32,17.32,0,0,1,4.95,6.93,3.44,3.44,0,0,1-1.31,4.34c-.85.68-3.8-1.47-2.61,1.61.66,1.71,2.94,2.15,4.81,1.77s2.28-1.73,1.81-3.46c-.53-2-1.15-4,1.64-5.12a27.07,27.07,0,0,0,4.38,7.1c1.49,1.61,2,3.82-1.47,3.93-.93,0-2.16-.8-2.41.62-.22,1.25,1.1,1.58,2.07,1.58,2.12,0,2,1.24,1.67,2.67-.51.54-1.06,1.07.09,1.51,2.07-.55,1.15-4.46,3.39-3.85,2.71.74,3.71,3.43,3.41,6.33a2.1,2.1,0,0,1-1,1.62c-2.82,1.4.86,1.85.44,2.92a3.14,3.14,0,0,1-.6,1.36c-3.94,2.71-8.41.91-12.59,1.55-1.31.07-2.58.61-3.92.31a2.15,2.15,0,0,1-1.75-2.18,5.9,5.9,0,0,1,.67-2c.72-1.89,1.21-3.77-.05-5.63-1.43-.33-2.82.35-4.23.15-.84-.07-1.63-.16-1.66,1.08a15.14,15.14,0,0,0,1.18,5.23c-.35,1.81-1.69,2.46-3.29,2.81a9.19,9.19,0,0,1-1.57.16c-2.86-.1-5.74.36-8.56-.45a2.2,2.2,0,0,1-1.41-2.18c0-1.28-1-1.55-1.94-1.92A4,4,0,0,1,516,742Z" transform="translate(-40.91 -174.91)"/><path class="cls-23" d="M486.09,686.85c-2.28-5.67-.85-11.56-.82-17.34,0-1.71,2.05-1.31,3.29-1.31q50.57,0,101.13,0c.82,0,1.68,0,2.09.92a3.31,3.31,0,0,1-2,1.94c-2.6.76-5.28.54-7.93.54-27.61,0-55.22,0-82.83,0a44.78,44.78,0,0,0-4.49,0c-2,.22-4.82-.66-5.61,2a12,12,0,0,0,.25,8.32c.79,1.77,2.79,1.52,4.45,1.53,17.46.15,34.91,0,52.37,0,13.47,0,26.94,0,40.41.08,1.67,0,3.34,0,4.67,1.31-.7,3.23-3.28,1.5-4.82,1.51-31.56.13-63.12.09-94.69.11C489.7,686.5,487.86,686.16,486.09,686.85Z" transform="translate(-40.91 -174.91)"/><path class="cls-1" d="M486.09,686.85c1.58-1.4,3.49-.72,5.24-.73,31.38,0,62.75,0,94.13-.08,1.8,0,4,1.08,5.39-1.24a18,18,0,0,1,0-14.56c.33-.37.65-.75,1-1.13.07,5,0,10,.26,14.94.12,2.56-1,3-3.23,3Q537.45,686.88,486.09,686.85Z" transform="translate(-40.91 -174.91)"/><path class="cls-24" d="M564.08,768.76c-.09,1.19-.19,2.37-.28,3.56-1.15.94-1.56,2.46-2.71,3.41l-1.22,3.53c-1,1.65-2.61,2.74-4,4.07.31,1.66-1.24,2.35-1.84,3.52-2.12.37-3.44,2-5.09,3.15l-4.67,3c-1.37-.24-2.45.58-3.65,1a7.8,7.8,0,0,1-5.38.37,3.87,3.87,0,0,1-1.56-1.44,1.77,1.77,0,0,1,1.11-1.67c1.51-.61,3.18-.42,4.7-1,.42-.15.84-.27,1.27-.39a7.33,7.33,0,0,0,3.79-2.23,10.68,10.68,0,0,1,3.94-2.18c1.85-.33,2.65-2,3.9-3.08,1.4-1.38,2.9-2.68,3.59-4.61a6.15,6.15,0,0,1,.64-1.11,7.07,7.07,0,0,0,2.27-4.31,24.82,24.82,0,0,1,1.43-4.45,7.89,7.89,0,0,1,2.72-3.2c1.25,0,1.59.92,1.73,2A3.79,3.79,0,0,1,564.08,768.76Z" transform="translate(-40.91 -174.91)"/><path class="cls-25" d="M516,742l3,2.17a1.16,1.16,0,0,1,.12,1.25,2.79,2.79,0,0,1-1.64,1.19,5.32,5.32,0,0,1-1.38.05c-5.25-.27-6.09,1.44-3.54,7.27a5,5,0,0,1,.28,2.72,9.49,9.49,0,0,0,.85,7.58,8.14,8.14,0,0,1,.85,2.44,6.72,6.72,0,0,0,1.48,4.58,4.51,4.51,0,0,1,.57,1.14,9.09,9.09,0,0,0,1.67,3.4,2.09,2.09,0,0,1,0,1.33,1.94,1.94,0,0,1-2.36.94,7.66,7.66,0,0,1-2.92-5.3c-.33-.61-.66-1.23-1-1.84-1.2-1.93-1.59-4.18-2.41-6.26a48.52,48.52,0,0,0-1-5.32c-.06-1.91.15-3.85-.44-5.72-.07-.81-.08-1.63-.08-2.44-.05-7.05-.05-7.05,6.78-8.49A3.1,3.1,0,0,0,516,742Z" transform="translate(-40.91 -174.91)"/><path class="cls-26" d="M564.1,767.2l-.92-2.19c-1.6-1.5-.36-3.18-.31-4.79a13.54,13.54,0,0,1,.33-1.4,9.89,9.89,0,0,0,.48-3.46c0-2.56.11-5.13-.13-7.67-.77-2-1.95-1.06-3.09-.44a2.52,2.52,0,0,1-1.94.18L558,747c0-.42,0-.84,0-1.26a1.9,1.9,0,0,1-.08-2.82l.91-.95,1.2.07a3.45,3.45,0,0,0,1.71.84c6.15.94,6.15.94,6.17,6.93a25.61,25.61,0,0,0-.49,5.73c-.17,2.13-1,4.17-1,6.32C565.31,763.48,566.51,766.14,564.1,767.2Z" transform="translate(-40.91 -174.91)"/><path class="cls-27" d="M543.59,707.19c-2.56,1.78-3.77,3.54-3.15,6-1.91.16-4-1.59-6,.82,1-3.14-.3-5-3.1-6.47,2.16-1,5.08.29,5.49-2.85.12-1,1-1.48,1.24,0C538.6,707.46,540.9,706.91,543.59,707.19Z" transform="translate(-40.91 -174.91)"/><path class="cls-28" d="M560,715.37c-2.22,2-3.62,3.72-2.07,6.18-5,.81-6.91-2.55-9-6.21,2.21-.18,4.73-.31,5.45-3.14C555.75,713.9,556.72,716.25,560,715.37Z" transform="translate(-40.91 -174.91)"/><path class="cls-29" d="M503.8,730c4.19.24,5.94-1.07,6.77-4.78.64,3.72,2.17,5.14,5.59,4.57-1.8,2.32-4.77,3.7-1.75,7.05-2.85-1.66-5-2-7.29.08C508.36,734,507.59,732,503.8,730Z" transform="translate(-40.91 -174.91)"/><path class="cls-30" d="M516.12,778l1.92-1.09c.82-.25,1.21.27,1.56.86a43.06,43.06,0,0,0,8.84,9,26,26,0,0,0,5.27,2.44,3.77,3.77,0,0,1,1.48,1.29,1.7,1.7,0,0,1,.08,1.29l-1.24.91c-1,1.06-2.09-.1-3.11.25l-3.51-3c-1.81-.33-2.55-1.89-3.57-3.11-2.59.26-2.81-2.84-4.82-3.41-.4-2.09-2.6-3-3.24-4.94Z" transform="translate(-40.91 -174.91)"/><path class="cls-31" d="M514.7,715.64c2.87,0,4.78-.88,5.7-3.43,1.24,1.89,2.57,3.63,5.57,3.37-3.88-.17-.21,5.55-5.63,5.51C515.23,721,518.67,715.29,514.7,715.64Z" transform="translate(-40.91 -174.91)"/><path class="cls-32" d="M570,730.71c-5,5.48-5,5.48-10.3-.41C563.11,728.88,566.51,727,570,730.71Z" transform="translate(-40.91 -174.91)"/><path class="cls-33" d="M516,742c-.17,1-.25,2.19-1.61,2-6.43-1.06-5.83,3.12-5.49,7.19a26.61,26.61,0,0,1,0,3c-.33.36-.39,1-1,1.06-1.61-3.42-.65-7.07-.88-10.61-.13-1.89.87-2.62,2.68-2.58C511.78,742,513.9,742,516,742Z" transform="translate(-40.91 -174.91)"/><path class="cls-34" d="M567.18,750.12c.29-3.94-.06-7.26-5.48-6.25-1.21.23-1.71-.64-1.61-1.82l.49,0c9.4-.18,9.91.51,7.55,10.14C567.23,751.75,567.73,750.69,567.18,750.12Z" transform="translate(-40.91 -174.91)"/><path class="cls-4" d="M513,772.79l3.14,5.24-.48-.07c-.29.51-.64.55-1,.14C513,776.67,511.73,775.11,513,772.79Z" transform="translate(-40.91 -174.91)"/><path class="cls-35" d="M509.93,765.18c1.74,1.54,1.78,3.7,2.05,5.77-2.37-.87-1.75-3.37-2.74-5A1,1,0,0,1,509.93,765.18Z" transform="translate(-40.91 -174.91)"/><path class="cls-35" d="M566,762a12.47,12.47,0,0,1,1-6c.26-.46.54-.44.82,0,.31,2.11-.51,4-1,6C566.58,762.46,566.31,762.48,566,762Z" transform="translate(-40.91 -174.91)"/><path class="cls-36" d="M566,762h.8c-1,2.23,0,5.27-2.76,6.76,0-.52,0-1,0-1.56C564.75,765.46,565.39,763.73,566,762Z" transform="translate(-40.91 -174.91)"/><path class="cls-37" d="M535,794a8.57,8.57,0,0,0,6-.8c.66.55.59,1.11,0,1.66-2,.94-3.93,1.31-5.9,0-.32-.17-.43-.36-.34-.56S534.9,794,535,794Z" transform="translate(-40.91 -174.91)"/><path class="cls-4" d="M561.09,775.73c.63-1.36.12-3.62,2.71-3.42C563.34,773.8,563.47,775.77,561.09,775.73Z" transform="translate(-40.91 -174.91)"/><path class="cls-38" d="M514.59,778.1l1-.14c1.37,1.72,3.36,3,3.38,5.58A14.82,14.82,0,0,1,514.59,778.1Z" transform="translate(-40.91 -174.91)"/><path class="cls-39" d="M549,790c1.17-1.89,2.28-3.89,5.09-3.14C552.58,788.22,551.39,790.09,549,790Z" transform="translate(-40.91 -174.91)"/><path class="cls-40" d="M509.93,765.18l-.69.77c.47-1.81-1.66-3.13-1-5a.77.77,0,0,1,.63-.7C511,761.53,509.57,763.54,509.93,765.18Z" transform="translate(-40.91 -174.91)"/><path class="cls-41" d="M552.09,739.5c-1.06,1.27-2.59,1.56-2.91-.14-.39-2.14,1.9-.78,2.82-1.37Z" transform="translate(-40.91 -174.91)"/><path class="cls-42" d="M508.91,760.26a1.12,1.12,0,0,1-.63.7l-.42-5.82,1-1.06Z" transform="translate(-40.91 -174.91)"/><path class="cls-43" d="M523.84,787l3.57,3.11C524.86,790.59,523.49,789.75,523.84,787Z" transform="translate(-40.91 -174.91)"/><path class="cls-44" d="M535,794a5.08,5.08,0,0,1,0,.87,8.52,8.52,0,0,1-4.12-1.81c.93-1.25,2-.41,3.1-.25Z" transform="translate(-40.91 -174.91)"/><path class="cls-45" d="M555.92,783.33c1.09-1.57,1.84-3.48,4-4.07C559.51,781.55,558.47,783.17,555.92,783.33Z" transform="translate(-40.91 -174.91)"/><path class="cls-46" d="M424.85,776.08l-2.93-1.75c.05-.9.08-1.81,1-2.34-.6,2.82,2.34,2.55,3.42,3.9A.94.94,0,0,1,424.85,776.08Z" transform="translate(-40.91 -174.91)"/><path class="cls-47" d="M541,794.82c0-.56,0-1.11,0-1.66,1.09-.74,2.17-1.79,3.36-.13C543.53,794.26,542.21,794.49,541,794.82Z" transform="translate(-40.91 -174.91)"/><path class="cls-21" d="M567.84,756H567c.05-2,.11-3.92.16-5.88l1,2C568,753.44,567.93,754.71,567.84,756Z" transform="translate(-40.91 -174.91)"/><path class="cls-3" d="M413.47,829.77c-5.41,1.5-10.49,1.87-15.6-.67a31.61,31.61,0,0,0-15.46-3.21c-2.72.1-5.5.44-6.78,3.27-1.44,3.18.54,5.69,2.68,7.41,9.4,7.59,19.85,11.95,32.26,9.22.32-.07.61-.27.94-.33,2.86-.58,7.17-2.1,8.11.59,1.14,3.28-3.11,4.85-5.95,6.06-5.25,2.24-10.69,1.95-16.17.94-9.84-1.81-18.92-5.27-26.07-12.51-8.28-8.37-5.84-17.74,5.53-20.54C390.78,816.59,402.59,821.74,413.47,829.77Z" transform="translate(-40.91 -174.91)"/><path class="cls-3" d="M683,852.59c.21-4,2.32-5.71,5.43-6.6a27.17,27.17,0,0,0,11.62-6.5c3.89-3.8,3-8.09-2.23-9.31-11.93-2.79-22.63.47-32.25,7.7a5.77,5.77,0,0,0-2.54,5.63c.53,3.49-2.33,4.75-4.47,4.75-2.43,0-2.81-3-2.88-5.1-.08-2.41,1.1-4.44,2.65-6.28,8.92-10.57,31.56-16,44.18-10.62,8.21,3.51,9.71,10.59,3.12,16.35C699.27,848.17,691.61,851.12,683,852.59Z" transform="translate(-40.91 -174.91)"/><path class="cls-3" d="M642.25,865.61c-6.85-.08-12.47-1.27-17.09-5.35-1.23-1.09-2.66-2.53-1.85-4.28.72-1.57,2.63-.84,4-1a8.85,8.85,0,0,1,4.35.87c10.51,4.57,27.72,1.5,35.78-6.36,1.59-1.54,3.27-3.38,2.2-5.67-1.93-4.15,1.28-5.17,3.73-6,3.29-1.12,3.65,2.36,4.2,4.13,1.9,6.06-1.61,10.29-6,13.66A47.72,47.72,0,0,1,648.83,865C646.36,865.31,643.86,865.45,642.25,865.61Z" transform="translate(-40.91 -174.91)"/><path class="cls-3" d="M581.25,877.15c-6.57-.09-13-.8-18.65-4.55-3.14-2.09-6.87-5.71-4.9-8.69,1.56-2.35,6.35-.19,9.1,2.39a10.66,10.66,0,0,0,5.83,2.67c12.87,1.87,25.27,1.79,35.32-8.43,1.93-2,5.38-4.46,7.2-2.73,2.29,2.16-.16,5.59-1.84,8-1.83,2.66-4.6,4.31-7.45,5.72A55.35,55.35,0,0,1,581.25,877.15Z" transform="translate(-40.91 -174.91)"/><path class="cls-3" d="M484.82,860.27c-.89,4.57-4.2,6.94-8,8.19-14.94,4.94-29.18,3.12-42.37-5.48a15.19,15.19,0,0,1-7-10c-.29-1.59-1.11-3.6.49-4.6s3.14.49,4.49,1.37a10.65,10.65,0,0,1,2.5,2.38c8.17,10.31,25.88,15,38.32,10.15C476.94,860.87,480.52,859,484.82,860.27Z" transform="translate(-40.91 -174.91)"/><path class="cls-3" d="M549.67,863.38c-.83,6.2-4.35,9.8-9.49,11.67a50.79,50.79,0,0,1-39.33-1.29,13.94,13.94,0,0,1-8.3-9.42c-.9-3.39.58-3.84,3.29-3.24a10.94,10.94,0,0,1,5,3.13c8.31,7.8,28.66,9.59,37.92,3A20.21,20.21,0,0,1,549.67,863.38Z" transform="translate(-40.91 -174.91)"/><path class="cls-21" d="M526.09,865.79A14.21,14.21,0,0,1,535,856.4c10.94-4.35,22.18-5.71,33.68-2.3a18.83,18.83,0,0,1,8.88,5.33c1.25,1.38,2.62,3.08,1.47,4.87-1.42,2.21-3.58.75-5.41.23a6.06,6.06,0,0,1-1.7-1c-9.31-6.57-25.61-7-35.26-.69C533.52,864.89,530.38,866.5,526.09,865.79Z" transform="translate(-40.91 -174.91)"/><path class="cls-21" d="M398.14,840.75a11.57,11.57,0,0,1,8.44-5.55,52.21,52.21,0,0,1,36.18,7.48,12.58,12.58,0,0,1,5.92,9.38c.19,1.51.16,3.38-1.18,4.07s-2.8-.47-4-1.33a3.59,3.59,0,0,1-1.05-1c-8.38-14-21.76-13.69-35.43-12.29C404.06,841.77,401.17,842.77,398.14,840.75Z" transform="translate(-40.91 -174.91)"/><path class="cls-21" d="M484.88,849.09c7.75.18,15.25,1.32,22.24,4.81,2.57,1.28,4.91,2.87,6.28,5.48,1,2,2.06,4.54.24,6s-4.74-.17-5.76-1.57c-7-9.73-17.34-8.22-27.15-8.31-4,0-7.7,1.48-11.37,3.24-2.13,1-5.94,2.41-7.17-.21-1-2,2.36-4,4.48-5.26C472.29,850,478.54,849.22,484.88,849.09Z" transform="translate(-40.91 -174.91)"/><path class="cls-21" d="M626.53,844.05c5.88.27,10.86.58,15,3.87,1.79,1.41,3.65,3.67,2.73,5.4-1,1.93-4.25,1.22-5.84.21-8.82-5.53-17.62-2.89-26.44-.41-4.61,1.29-8.21,4.2-11.6,7.5-1.88,1.81-5.17,4.1-6.83,2.4-1.91-2,.75-4.93,2.52-6.79C604.59,847.29,615.77,845.1,626.53,844.05Z" transform="translate(-40.91 -174.91)"/><path class="cls-40" d="M448.23,839a60.65,60.65,0,0,1,27.53,6.81c-5.83,1.13-10.2,3-15.73,2.17C454.21,847,452.24,842.81,448.23,839Z" transform="translate(-40.91 -174.91)"/><path class="cls-48" d="M600.58,846.61c-9.23,7.71-17.81,10.09-27.42,2.11C582,846.59,590.61,844.76,600.58,846.61Z" transform="translate(-40.91 -174.91)"/><path class="cls-22" d="M537,850.53c-9.61,6.11-18,7.15-25.72-2.09C520,846.25,528.08,848.56,537,850.53Z" transform="translate(-40.91 -174.91)"/><path class="cls-49" d="M635.18,838.57c5.75-3.77,11.75-4.68,18.06-5.79C649.43,843.12,648.28,843.48,635.18,838.57Z" transform="translate(-40.91 -174.91)"/><path class="cls-50" d="M691.93,833.31c1.58.23,3.67,0,4.32,1.75.7,1.88-1.24,2.83-2.51,3.73a28.9,28.9,0,0,1-4.34,2.37c-3.84,1.83-7.63-.91-7.42-5.26.07-1.47,1.1-1.44,2-1.57C686.63,834,689.26,833.65,691.93,833.31Z" transform="translate(-40.91 -174.91)"/><path class="cls-32" d="M409.24,857.44c8.63-4.78,13-3.58,16.26,4.34A32.48,32.48,0,0,1,409.24,857.44Z" transform="translate(-40.91 -174.91)"/><path class="cls-51" d="M543.5,877.75c9-7.34,11.11-7.43,16.68-.48C554.58,878.5,549.35,879.21,543.5,877.75Z" transform="translate(-40.91 -174.91)"/><path class="cls-52" d="M476.62,873.44c6.5-5.79,13.47-6.73,16.1,1.38C487.41,875.63,482.34,874.78,476.62,873.44Z" transform="translate(-40.91 -174.91)"/><path class="cls-52" d="M613,871.75c6.74-8.35,8.7-8.75,15.54-3.6C624.48,871,619.54,872.16,613,871.75Z" transform="translate(-40.91 -174.91)"/><path class="cls-29" d="M383.28,832.12c4.18-.79,7.75.54,11.39,2C391.68,839.07,388.4,838.49,383.28,832.12Z" transform="translate(-40.91 -174.91)"/><path class="cls-53" d="M586.44,859.62c1,1.34.49,2.65.17,4-1.83,0-1.54-1.18-1.59-2.09A1.71,1.71,0,0,1,586.44,859.62Z" transform="translate(-40.91 -174.91)"/><path class="cls-22" d="M589.16,358.4c0,3.83-.12,7.66,0,11.49.15,4.08-2.79,2.78-4.84,2.93s-4.33.43-4.25-3.06c.18-7.66.15-15.33,0-23-.07-4.1,2.85-2.74,4.88-2.9s4.42-.51,4.21,3C589,350.72,589.16,354.56,589.16,358.4Z" transform="translate(-40.91 -174.91)"/><path class="cls-54" d="M525.41,358.06c0-3.32.24-6.67-.06-10-.34-3.72,1.31-4.38,4.6-4.36,3.11,0,4.42.67,4.29,4.11-.26,7-.25,14,0,21,.12,3.4-1.13,4.14-4.28,4.16-3.35,0-4.9-.78-4.61-4.42C525.63,365.07,525.41,361.56,525.41,358.06Z" transform="translate(-40.91 -174.91)"/><path class="cls-1" d="M443.35,983.19c-8.65-.51-8.48-.49-7.84-9.18q1.73-23.6,3-47.22c.19-3.48,1.5-4.7,4.83-4.24,1.81.25,3.66.13,5.47.34,7.28.86,9.42,3,9.12,10.2q-.84,20.42-2.18,40.79C455.18,982.82,453.67,983.79,443.35,983.19Z" transform="translate(-40.91 -174.91)"/><path class="cls-1" d="M710.49,967.28c.53,7.36-9.86,14.58-18.47,10.8-1.47-.65-1.21-1.86-1.31-2.91-1.73-18.2-3.4-36.41-5.11-54.62-.15-1.55,0-2.6,1.93-2.6a18.65,18.65,0,0,0,3-.41c12.64-2.06,15,.14,15.82,11.57C707.17,941.2,708.91,953.23,710.49,967.28Z" transform="translate(-40.91 -174.91)"/><path class="cls-21" d="M755.77,921.42c3.32,9.34,6.61,18.7,10,28,.73,2,.28,2.9-2,3.42-11.25,2.64-11.36,2.66-10.77-8.56.41-7.6,1.1-15.17,1.66-22.76Z" transform="translate(-40.91 -174.91)"/><path class="cls-55" d="M583.85,812.06c-.9,4.27-5.06,4.25-7.89,6C577.12,814.11,581,813.8,583.85,812.06Z" transform="translate(-40.91 -174.91)"/><path class="cls-56" d="M560.93,826.63c-3,2.07-5.5,5.43-9.92,4.13-.27-.22-.35-.44-.25-.65s.2-.31.29-.31c3.84.72,5.57-3.63,9.06-3.76C560.65,825.86,560.91,826.07,560.93,826.63Z" transform="translate(-40.91 -174.91)"/><path class="cls-57" d="M609.88,797.05c-1,4.24-4.85,4.36-7.93,5.62l.12-.29C603.77,799.28,607.08,798.54,609.88,797.05Z" transform="translate(-40.91 -174.91)"/><path class="cls-58" d="M483,809.86c-2.85-1.38-5.73-2.7-8.1-4.89,3.88-.57,6.19,2.38,9.09,4A1.55,1.55,0,0,1,483,809.86Z" transform="translate(-40.91 -174.91)"/><path class="cls-59" d="M540.71,826.94c-1.73,1.68-3.84.83-5.81.88-.94-.77-2.46.27-3.21-1.05C534.72,825.74,537.74,825.26,540.71,826.94Z" transform="translate(-40.91 -174.91)"/><path class="cls-60" d="M475.05,805.05a26.41,26.41,0,0,1-7.2-4c.11-.63.67-.69,1.12-.88C471.17,801.59,474.34,801.78,475.05,805.05Z" transform="translate(-40.91 -174.91)"/><path class="cls-61" d="M456.05,794.05a18.88,18.88,0,0,1-7.11-4.08C452.41,789.41,454.58,791.12,456.05,794.05Z" transform="translate(-40.91 -174.91)"/><path class="cls-62" d="M508.05,824.05a21.15,21.15,0,0,1-7.2-4,1.52,1.52,0,0,1,1.07-.84C504.12,820.65,507.13,821,508.05,824.05Z" transform="translate(-40.91 -174.91)"/><path class="cls-46" d="M616.67,793.17c0,3.08-2.65,2.92-4.49,3.76C612.55,794.33,614.84,794,616.67,793.17Z" transform="translate(-40.91 -174.91)"/><path class="cls-63" d="M483,809.86l1-.88,6.43,3.84a1.09,1.09,0,0,1-1.64.26Z" transform="translate(-40.91 -174.91)"/><path class="cls-30" d="M488.82,813.08l1.64-.26A16.78,16.78,0,0,1,496,816a1.41,1.41,0,0,1-1,.82Z" transform="translate(-40.91 -174.91)"/><path class="cls-64" d="M436.87,783.07l-5.82-3.24c-.14-.81-.07-1.37,1-.84l6.51,3.83A1.13,1.13,0,0,1,436.87,783.07Z" transform="translate(-40.91 -174.91)"/><path class="cls-64" d="M495,816.81l1-.82,5.89,3.26-1.07.84Z" transform="translate(-40.91 -174.91)"/><path class="cls-65" d="M432,779l-1,.84a21.59,21.59,0,0,1-6.2-3.75l1.48-.19A15.61,15.61,0,0,1,432,779Z" transform="translate(-40.91 -174.91)"/><path class="cls-66" d="M462,797.79c-2.14-1.1-4.42-2-6.1-3.83,3-.49,4.93,1.62,7.16,3A1.52,1.52,0,0,1,462,797.79Z" transform="translate(-40.91 -174.91)"/><path class="cls-67" d="M462,797.79l1.06-.83,5.87,3.23-1.12.88Z" transform="translate(-40.91 -174.91)"/><path class="cls-46" d="M520.43,830c-3.22,1.46-4.56-1.11-6.25-2.92Z" transform="translate(-40.91 -174.91)"/><path class="cls-68" d="M623.86,789.07c-.07,3.09-2.63,3.16-4.67,3.85C619.24,789.81,622.32,790.38,623.86,789.07Z" transform="translate(-40.91 -174.91)"/><path class="cls-69" d="M436.87,783.07l1.65-.25a16.27,16.27,0,0,1,5.62,3.12c-.11.62-.67.68-1.11.89Z" transform="translate(-40.91 -174.91)"/><path class="cls-70" d="M443,786.83l1.11-.89c1.87,1.08,4.49,1.28,4.91,4.11Z" transform="translate(-40.91 -174.91)"/><path class="cls-71" d="M531.69,826.77c1.07.33,2.36,0,3.21,1.05-2.44-.31-4.81,1.8-7.27.18C528.7,826.64,530.28,827,531.69,826.77Z" transform="translate(-40.91 -174.91)"/><path class="cls-63" d="M590.87,809.72c-1.52.85-2.87,2-4.71,2.22,0-2.57,2.08-2.54,3.76-3C590.94,808.35,591,808.94,590.87,809.72Z" transform="translate(-40.91 -174.91)"/><path class="cls-72" d="M526.88,829.19c-1.69.85-3.27,2.41-5.34.81C523.2,828.94,524.85,827.82,526.88,829.19Z" transform="translate(-40.91 -174.91)"/><path class="cls-73" d="M590.87,809.72l-1-.78,4.12-2.86c.41.28,1,.37,1.08,1Z" transform="translate(-40.91 -174.91)"/><path class="cls-57" d="M630.86,785.06c-.14,2.8-1.82,3.39-4.22,3C628,786.91,628.64,784.88,630.86,785.06Z" transform="translate(-40.91 -174.91)"/><path class="cls-46" d="M560.93,826.63l-.82-.59a4.58,4.58,0,0,1,3.83-2.07,1,1,0,0,1,1.52.19A9.32,9.32,0,0,1,560.93,826.63Z" transform="translate(-40.91 -174.91)"/><path class="cls-68" d="M602.07,802.38l-.12.29c-.61,1.64-2,2.09-3.54,2.41a1,1,0,0,1-1.5-.13C598.39,803.62,600,802.46,602.07,802.38Z" transform="translate(-40.91 -174.91)"/><path class="cls-46" d="M644.87,778.24c-1.42,1.09-2.79,2.32-4.82,1.64C641.06,777.56,643.05,778.14,644.87,778.24Z" transform="translate(-40.91 -174.91)"/><path class="cls-67" d="M565.46,824.16l-1.52-.19,4.09-2.85c.42.24,1,.32,1.08.94A6.29,6.29,0,0,1,565.46,824.16Z" transform="translate(-40.91 -174.91)"/><path class="cls-63" d="M551.05,829.8c0,.32,0,.64,0,1-1.35-.58-3-.43-4-1.86,0-.2,0-.41,0-.62Z" transform="translate(-40.91 -174.91)"/><path class="cls-63" d="M596.91,805l1.5.13-3.29,2-1.08-1C595,805.67,595.7,804.69,596.91,805Z" transform="translate(-40.91 -174.91)"/><path class="cls-66" d="M576.05,818a5.21,5.21,0,0,1-3.57,2.11,1.13,1.13,0,0,1-1.58-.13C572.34,818.57,573.86,817.39,576.05,818Z" transform="translate(-40.91 -174.91)"/><path class="cls-63" d="M570.9,820l1.58.14a6.21,6.21,0,0,1-3.37,2l-1.08-.94Z" transform="translate(-40.91 -174.91)"/><path class="cls-46" d="M547,828.28a4.21,4.21,0,0,0,0,.62c-1.93.19-3.68-.08-4.87-1.84Z" transform="translate(-40.91 -174.91)"/><path class="cls-74" d="M512.09,826a4.7,4.7,0,0,1-4.14-2C509.79,823.73,511.35,824,512.09,826Z" transform="translate(-40.91 -174.91)"/><path class="cls-2" d="M589.15,614c0,28-22.41,50-50.79,50a50.3,50.3,0,0,1-50.77-50.19c-.17-27.82,22.73-50.06,51.45-50A49.86,49.86,0,0,1,589.15,614Z" transform="translate(-40.91 -174.91)"/><path class="cls-6" d="M540.25,747.05c-.27.84-.4,1.63.69,2,4.92.1,9.82-.1,14.73-.07a5.24,5.24,0,0,0,2.28-.77c2.61-.94,4.06.3,3.69,2.74-.4,2.66-1.56,5.22-5.22,4.2-4.67-1.65-9.53-.45-14.24-.9a5.1,5.1,0,0,0,0,1.1,15.07,15.07,0,0,0,1.62,4.7c.82,2.61,2.39,4.29,5.33,4.3a2.37,2.37,0,0,1,2.63,1.78c-3,8.43-6.82,16.14-15.87,19.67-1.9-.44-3.06-2-4.63-3a6.23,6.23,0,0,1-1-.95,15.08,15.08,0,0,0-3.14-3.43c-1.55-1.3-2.54-2.73-1.14-4.73,1.27-1.38,3.09-2.29,3.71-4.25l.48-1.83c.3-2.24,2.05-3.6,3.21-5.32a33.52,33.52,0,0,0,.92-3.84c.73-2.64.07-4.31-3-4.1-3.75.25-7.6-.86-11.25.81-2.88,2.08-4.18.36-5.17-2.14-.77-2.67-1-5,2.94-4.87,1.56.26,3.05,1,4.69.84h8.6c3.38.15,5.88-.42,3.81-4.7-.3-1.91-.29-3.74,1.12-5.27l5-.59a4.1,4.1,0,0,1,0,1.44C541,742.29,541.2,744.74,540.25,747.05Z" transform="translate(-40.91 -174.91)"/><path class="cls-75" d="M536,739l-.18,6a1.39,1.39,0,0,1-.84,1c-3.71-1-1.67-4-1.82-6C533,737.75,535,739.24,536,739Z" transform="translate(-40.91 -174.91)"/><path class="cls-76" d="M556.65,749.84c-5.24-.2-10.56,1.2-15.71-.8l3.21-.95c3.37.92,6.81.14,10.21.46C555.23,748.63,556.83,747.77,556.65,749.84Z" transform="translate(-40.91 -174.91)"/><path class="cls-77" d="M535,746l.84-1c1.86,4.73,1.68,5-3.91,4.86A1.22,1.22,0,0,1,532,748,3,3,0,0,0,535,746Z" transform="translate(-40.91 -174.91)"/><path class="cls-78" d="M522.09,750c-1.46.1-3,.48-4.15-.86a2,2,0,0,1,.45-1.09,2.65,2.65,0,0,1,1-.61,1.85,1.85,0,0,1,1.67.43l9.82.24c-.13,2.54-2.09,1.14-3.19,1.37C525.87,749.83,523.9,749,522.09,750Z" transform="translate(-40.91 -174.91)"/><path class="cls-79" d="M556.65,749.84c-3.93-2.24-8.58.59-12.5-1.75,4.6-.6,9.37.95,13.86-1.08l.34.18a1.89,1.89,0,0,1-.19,1.77Z" transform="translate(-40.91 -174.91)"/><path class="cls-80" d="M558,742.93c0,.94,0,1.88.08,2.82-1.59-.11-4.18,1-4.07-1.67C554.09,741.8,556.61,743.34,558,742.93Z" transform="translate(-40.91 -174.91)"/><path class="cls-81" d="M522.09,750c2.56-2.4,6.26.54,8.81-1.89l1.13,0c0,.62-.07,1.24-.1,1.86Z" transform="translate(-40.91 -174.91)"/><path class="cls-82" d="M541,738.45h0a7.11,7.11,0,0,1-.08,8A15.51,15.51,0,0,1,541,738.45Z" transform="translate(-40.91 -174.91)"/><path class="cls-12" d="M541,738.45q0,4-.11,8a.69.69,0,0,1-.66.57C540.17,744.16,539.08,741.17,541,738.45Z" transform="translate(-40.91 -174.91)"/><path class="cls-83" d="M521.08,747.82,519,748a1.56,1.56,0,0,1-1.21-2l1.22-.91a3.36,3.36,0,0,1,3,.79Z" transform="translate(-40.91 -174.91)"/><path class="cls-84" d="M522,745.9c-1.07,0-2.26.51-3-.79v-.91C520.2,744.37,522.31,743,522,745.9Z" transform="translate(-40.91 -174.91)"/><path class="cls-85" d="M590.81,670.24q0,7.28,0,14.56c-1.65.13-3.3.37-5,.37-31.27,0-62.55-.06-93.83.1-4.05,0-5.46-.91-5.35-5.19C487,670,486.74,670,497,670q43.92,0,87.85,0C586.83,670,588.82,670.16,590.81,670.24Z" transform="translate(-40.91 -174.91)"/><path class="cls-6" d="M517.76,746c.41.66.81,1.32,1.21,2l0-.06c-2.08.94-7,.06-3.09,4.85.94.61.5,4.79,3.09,1.2a3.45,3.45,0,0,1,2.82-.34,1.87,1.87,0,0,1,.72,1.19c.21,1.51-1.44,2.06-1.9,3.83,5.82.45,7.34,5.67,10.35,9.34,0,.71,0,1.42-.08,2.12A10.27,10.27,0,0,0,527,774c-2.26,2,.12,2.72,1,3.85.54,1.72,2.22,2.63,3,4.17l0,0c1.83.91,2.77,3,4.77,3.65,11.4.16,21.12-13.4,16.36-22.82a3.77,3.77,0,0,1-.82-2.64c1.59-1.84,1.38-3.77.28-5.75a1.42,1.42,0,0,1,1.09-.89c1.48.23,3.13-.63,4.42.72,2.87.32,3.4-2,3.72-3.84s-1-2.26-2.63-1.45c.06-.59.13-1.18.19-1.77L560,747a3.26,3.26,0,0,1,4-.34c1,2.36.26,4.85.51,7.26a22.19,22.19,0,0,0-.53,5.27,4.42,4.42,0,0,0,0,.89c-1.75,2.26-1.54,5.24-2.86,7.66l-1.2,5.5c-1.25.92-1.67,2.5-2.79,3.52l-.25,1.56c-1.34,1.84-3.14,3.23-4.65,4.9-1.24.91-1.84,2.66-3.69,2.75-1,1-2,2.09-3.62,2.07-.74,1.61-2.79,1.53-3.73,2.89l-1.36.13c-1.67.94-3.31.21-5-.1l-1-1.11a59,59,0,0,1-6.1-2.68c-2.9-3.21-6.72-5.59-8.76-9.59l-1-.65a8.42,8.42,0,0,1,0-.87c-1.26-1.06-1.49-2.63-2-4.06h0a7.77,7.77,0,0,1-2-5.34l-1.1-1.86a21.22,21.22,0,0,1-.89-8c0-1-.08-2-.11-3-2-6.37-1.19-7.55,5.21-7.84Z" transform="translate(-40.91 -174.91)"/><path class="cls-51" d="M561.12,767.75c.08-2.88.28-5.71,2.86-7.66-.27,1.64-.54,3.28-.8,4.92A3.62,3.62,0,0,1,561.12,767.75Z" transform="translate(-40.91 -174.91)"/><path class="cls-86" d="M552.16,783c1.18-1.95,2.29-4,4.72-4.7a7.29,7.29,0,0,1-3.77,4.71A.56.56,0,0,1,552.16,783Z" transform="translate(-40.91 -174.91)"/><path class="cls-4" d="M557.13,776.77c.34-1.64.44-3.47,2.79-3.52C559.45,774.79,559.42,776.67,557.13,776.77Z" transform="translate(-40.91 -174.91)"/><path class="cls-87" d="M552.16,783c.32,0,.63,0,1,0-1.34,1.27-1.72,4-4.56,2.94A8.14,8.14,0,0,1,552.16,783Z" transform="translate(-40.91 -174.91)"/><path class="cls-88" d="M541.19,790.94c-.18-2.8,2.75-1.6,3.73-2.89C545.05,790.79,542.68,790.29,541.19,790.94Z" transform="translate(-40.91 -174.91)"/><path class="cls-89" d="M534.88,791c1.67-.84,3.29.49,5,.1-1.28,1.67-3,.63-4.56.79C535.15,791.56,535,791.26,534.88,791Z" transform="translate(-40.91 -174.91)"/><path class="cls-90" d="M517.13,746c-4.54.75-6.05,3.51-5.21,7.84-3.44-1.9-2.38-5.43-1.38-7.44C511.7,744.05,514.81,745,517.13,746Z" transform="translate(-40.91 -174.91)"/><path class="cls-91" d="M512,756.86c1.36,2.54,1,5.27.89,8C511.33,762.32,510,759.78,512,756.86Z" transform="translate(-40.91 -174.91)"/><path class="cls-92" d="M514,766.68c1.32,1.54,1.61,3.46,2,5.34C513.09,771.1,512.62,769.24,514,766.68Z" transform="translate(-40.91 -174.91)"/><path class="cls-79" d="M516,772a4.63,4.63,0,0,1,2,4.06C515.5,775.64,514.91,774.25,516,772Z" transform="translate(-40.91 -174.91)"/><path class="cls-93" d="M563.81,754.86c.05-2.59.09-5.19.13-7.78-.27-.88-.05-1.31.94-1,.79,3.26,0,6.5-.07,9.75C563.88,756.11,563.47,755.87,563.81,754.86Z" transform="translate(-40.91 -174.91)"/><path class="cls-94" d="M564.88,746.09l-.94,1-4-.07C561.14,744.15,563,745,564.88,746.09Z" transform="translate(-40.91 -174.91)"/><path class="cls-95" d="M563.81,754.86l1,1c.16,1.23.24,2.44-.85,3.36C562.37,757.8,562.86,756.34,563.81,754.86Z" transform="translate(-40.91 -174.91)"/><path class="cls-96" d="M519,777.59l9.13,9a.7.7,0,0,1-.15,1.22C524.47,784.86,520.15,782.63,519,777.59Z" transform="translate(-40.91 -174.91)"/><path class="cls-86" d="M528,787.77l.15-1.22,5.73,3.31C531.38,790.73,529.83,788.85,528,787.77Z" transform="translate(-40.91 -174.91)"/><path class="cls-50" d="M496,613.75c.06-23.06,19.22-41.67,42.87-41.61,23,.05,42.11,19,42.16,41.91,0,22.49-19.36,41.6-42.46,41.81S495.93,636.72,496,613.75Z" transform="translate(-40.91 -174.91)"/><path class="cls-97" d="M496.26,597.77a1.72,1.72,0,0,1-1.75-1.51,1.66,1.66,0,0,1,1.71-2,1.61,1.61,0,0,1,1.69,1.47C498.07,597,497.28,597.53,496.26,597.77Z" transform="translate(-40.91 -174.91)"/><path class="cls-98" d="M533,567.2a1.73,1.73,0,0,1,1.8,1.42,1.68,1.68,0,0,1-1.59,2,1.65,1.65,0,0,1-1.79-1.39C531.14,568.14,531.89,567.48,533,567.2Z" transform="translate(-40.91 -174.91)"/><path class="cls-99" d="M527.72,571.61c-1-.33-1.87-.92-1.57-2.09a1.69,1.69,0,0,1,1.84-1.33,1.66,1.66,0,0,1,1.54,2.07A1.67,1.67,0,0,1,527.72,571.61Z" transform="translate(-40.91 -174.91)"/><path class="cls-100" d="M549.11,571.6a1.75,1.75,0,0,1-1.84-1.31,1.63,1.63,0,0,1,1.47-2.12,1.66,1.66,0,0,1,1.92,1.74C550.71,570.84,550,571.3,549.11,571.6Z" transform="translate(-40.91 -174.91)"/><path class="cls-99" d="M513,577.87a1.77,1.77,0,0,1-1.52-2.18,1.58,1.58,0,0,1,1.83-1.29,1.7,1.7,0,0,1,1.54,1.65C514.87,577.23,514.06,577.72,513,577.87Z" transform="translate(-40.91 -174.91)"/><path class="cls-99" d="M567.84,577.45a1.68,1.68,0,0,1,1.76,1.41,1.72,1.72,0,1,1-3.41.11C566.21,578,567,577.63,567.84,577.45Z" transform="translate(-40.91 -174.91)"/><path class="cls-99" d="M493.26,604.32c1.07.26,1.8.94,1.6,2.06a1.71,1.71,0,1,1-3.37-.61A1.75,1.75,0,0,1,493.26,604.32Z" transform="translate(-40.91 -174.91)"/><path class="cls-97" d="M504.92,646.76c-1.07-.29-1.85-1-1.6-2.09a1.62,1.62,0,0,1,1.8-1.38,1.72,1.72,0,0,1,1.63,2.05A1.85,1.85,0,0,1,504.92,646.76Z" transform="translate(-40.91 -174.91)"/><path class="cls-101" d="M571.82,646.68c-.88-.26-1.58-.76-1.58-1.67a1.72,1.72,0,0,1,3.43-.2C573.71,646,572.88,646.52,571.82,646.68Z" transform="translate(-40.91 -174.91)"/><path class="cls-92" d="M529.69,658c-.22,1.11-.92,1.84-2,1.68a1.61,1.61,0,0,1-1.44-1.73,1.64,1.64,0,0,1,2-1.66A1.72,1.72,0,0,1,529.69,658Z" transform="translate(-40.91 -174.91)"/><path class="cls-99" d="M506.8,583a1.73,1.73,0,0,1-2.14,1.53,1.53,1.53,0,0,1-1.42-1.73,1.78,1.78,0,0,1,3.56.2Z" transform="translate(-40.91 -174.91)"/><path class="cls-100" d="M549.2,656.22c1,.24,1.84.82,1.62,2a1.65,1.65,0,0,1-1.73,1.43,1.73,1.73,0,0,1-1.69-2A1.71,1.71,0,0,1,549.2,656.22Z" transform="translate(-40.91 -174.91)"/><path class="cls-99" d="M545.66,658.63a1.8,1.8,0,0,1-1.9,1.84,1.51,1.51,0,0,1-1.61-1.48,1.66,1.66,0,0,1,1.79-1.83C544.88,657.12,545.3,657.89,545.66,658.63Z" transform="translate(-40.91 -174.91)"/><path class="cls-92" d="M533.34,657.17c.95.24,1.74.82,1.52,2a1.7,1.7,0,1,1-3.35-.63A1.58,1.58,0,0,1,533.34,657.17Z" transform="translate(-40.91 -174.91)"/><path class="cls-102" d="M524.44,656.48c-.22.82-.58,1.52-1.58,1.56a1.5,1.5,0,0,1-1.73-1.32c-.13-1.19.6-1.78,1.74-1.8S524.21,655.66,524.44,656.48Z" transform="translate(-40.91 -174.91)"/><path class="cls-103" d="M496.3,633.47a1.62,1.62,0,0,1-1.69-1.87,1.46,1.46,0,0,1,1.63-1.39,1.65,1.65,0,0,1,1.69,1.86C497.86,633,497.18,633.39,496.3,633.47Z" transform="translate(-40.91 -174.91)"/><path class="cls-104" d="M493.47,620.14a1.62,1.62,0,0,1,1.39,1.9,1.49,1.49,0,0,1-1.66,1.35,1.64,1.64,0,1,1,.27-3.25Z" transform="translate(-40.91 -174.91)"/><path class="cls-105" d="M582.15,625.14a1.56,1.56,0,0,1,1.89,1.27,1.52,1.52,0,0,1-1.54,2,1.48,1.48,0,0,1-1.54-1.54A1.56,1.56,0,0,1,582.15,625.14Z" transform="translate(-40.91 -174.91)"/><path class="cls-106" d="M582.48,599.11c.84.19,1.52.61,1.54,1.55a1.48,1.48,0,0,1-1.79,1.68,1.42,1.42,0,0,1-1.31-1.69A1.66,1.66,0,0,1,582.48,599.11Z" transform="translate(-40.91 -174.91)"/><path class="cls-107" d="M579.93,591.36c-.3,1-1,1.71-2.07,1.5a1.51,1.51,0,0,1-1.24-1.77,1.57,1.57,0,0,1,2-1.49A1.6,1.6,0,0,1,579.93,591.36Z" transform="translate(-40.91 -174.91)"/><path class="cls-108" d="M510.61,579.15a1.72,1.72,0,0,1-1.43,1.79,1.67,1.67,0,0,1-2-1.64,1.49,1.49,0,0,1,1.37-1.72A1.85,1.85,0,0,1,510.61,579.15Z" transform="translate(-40.91 -174.91)"/><path class="cls-100" d="M565.16,576c-.08.85-.36,1.63-1.31,1.7A1.6,1.6,0,0,1,562,576a1.56,1.56,0,0,1,1.81-1.7C564.73,574.38,565.09,575.13,565.16,576Z" transform="translate(-40.91 -174.91)"/><path class="cls-102" d="M517.63,571.94a1.48,1.48,0,0,1,1.72,1.31,1.45,1.45,0,0,1-1.24,1.76,1.56,1.56,0,0,1-2-1.52A1.54,1.54,0,0,1,517.63,571.94Z" transform="translate(-40.91 -174.91)"/><path class="cls-109" d="M554.08,569.79c.73,0,1.56.31,1.62,1.31a1.58,1.58,0,0,1-1.8,1.83,1.62,1.62,0,0,1-1.58-1.62C552.25,570.37,553,569.89,554.08,569.79Z" transform="translate(-40.91 -174.91)"/><path class="cls-110" d="M521.85,569.93c1.66-.07,2.37.35,2.45,1.26a1.49,1.49,0,0,1-1.72,1.77,1.46,1.46,0,0,1-1.52-1.54C521,570.52,521.59,569.93,521.85,569.93Z" transform="translate(-40.91 -174.91)"/><path class="cls-91" d="M555.87,656.11A1.57,1.57,0,0,1,554.6,658a1.53,1.53,0,0,1-2-1.54,1.42,1.42,0,0,1,1.51-1.51A1.6,1.6,0,0,1,555.87,656.11Z" transform="translate(-40.91 -174.91)"/><path class="cls-106" d="M539,660.8a1.61,1.61,0,0,1-2-1.24,1.52,1.52,0,0,1,1.56-1.95,1.41,1.41,0,0,1,1.52,1.5A1.64,1.64,0,0,1,539,660.8Z" transform="translate(-40.91 -174.91)"/><path class="cls-91" d="M585.2,621.8a1.4,1.4,0,0,1-1.69,1.32c-.89-.12-1.53-.65-1.39-1.64a1.5,1.5,0,0,1,1.71-1.37C584.83,620.18,585.14,620.92,585.2,621.8Z" transform="translate(-40.91 -174.91)"/><path class="cls-37" d="M584.53,615c.9.18,1.49.67,1.36,1.65a1.45,1.45,0,0,1-1.7,1.34,1.37,1.37,0,0,1-1.34-1.65A1.42,1.42,0,0,1,584.53,615Z" transform="translate(-40.91 -174.91)"/><path class="cls-111" d="M510.58,648.33a1.64,1.64,0,0,1-1.31,1.76,1.47,1.47,0,0,1-1.91-1,1.51,1.51,0,0,1,1.43-2C509.73,646.91,510.27,647.51,510.58,648.33Z" transform="translate(-40.91 -174.91)"/><path class="cls-36" d="M494.05,616.72a1.37,1.37,0,0,1-1.68,1.31,1.43,1.43,0,0,1-1.38-1.67,1.4,1.4,0,0,1,1.69-1.34A1.47,1.47,0,0,1,494.05,616.72Z" transform="translate(-40.91 -174.91)"/><path class="cls-112" d="M494,611.52c-.18.9-.67,1.5-1.66,1.37a1.51,1.51,0,0,1-1.37-1.72,1.36,1.36,0,0,1,1.67-1.33A1.4,1.4,0,0,1,494,611.52Z" transform="translate(-40.91 -174.91)"/><path class="cls-31" d="M582.83,611.2a1.48,1.48,0,0,1,1.56-1.57,1.44,1.44,0,0,1,1.53,1.57,1.57,1.57,0,0,1-1.58,1.59C583.43,612.83,582.89,612.15,582.83,611.2Z" transform="translate(-40.91 -174.91)"/><path class="cls-113" d="M585.27,605.89a1.59,1.59,0,0,1-1.41,1.64,1.51,1.51,0,0,1-1.79-1.74,1.59,1.59,0,0,1,1.61-1.54C584.6,604.2,585.13,604.87,585.27,605.89Z" transform="translate(-40.91 -174.91)"/><path class="cls-28" d="M577,640.67a1.55,1.55,0,0,1-3.09.3,1.4,1.4,0,0,1,1.36-1.69A1.6,1.6,0,0,1,577,640.67Z" transform="translate(-40.91 -174.91)"/><path class="cls-113" d="M496,600.56c-.08,1.46-.8,2.09-1.57,2a1.65,1.65,0,0,1-1.57-2,1.37,1.37,0,0,1,1.74-1.24C495.46,599.53,496,600.08,496,600.56Z" transform="translate(-40.91 -174.91)"/><path class="cls-83" d="M582.14,595.75a1.46,1.46,0,0,1-1.36,1.64A1.48,1.48,0,0,1,579,595.7a1.55,1.55,0,0,1,1.61-1.45C581.52,594.2,582.05,594.82,582.14,595.75Z" transform="translate(-40.91 -174.91)"/><path class="cls-107" d="M503.12,640.85c-.1,1.19-.78,1.87-1.58,1.81a1.63,1.63,0,0,1-1.53-2.08,1.61,1.61,0,0,1,1.83-1.28A1.45,1.45,0,0,1,503.12,640.85Z" transform="translate(-40.91 -174.91)"/><path class="cls-37" d="M500.08,591.52c-.18.89-.66,1.5-1.65,1.36a1.49,1.49,0,0,1-1.36-1.71,1.39,1.39,0,0,1,1.68-1.32A1.37,1.37,0,0,1,500.08,591.52Z" transform="translate(-40.91 -174.91)"/><path class="cls-31" d="M514.88,651.74a1.52,1.52,0,0,1-1.64,1.46,1.46,1.46,0,0,1-1.58-1.54,1.48,1.48,0,0,1,1.62-1.51C514.25,650.2,514.67,650.88,514.88,651.74Z" transform="translate(-40.91 -174.91)"/><path class="cls-112" d="M578.34,638a1.54,1.54,0,1,1,1.58-1.56A1.61,1.61,0,0,1,578.34,638Z" transform="translate(-40.91 -174.91)"/><path class="cls-36" d="M575.27,588.37a1.59,1.59,0,0,1-1.46-1.7c0-.94.58-1.6,1.54-1.5a1.59,1.59,0,0,1,1.52,1.66C576.87,587.87,576.12,588.18,575.27,588.37Z" transform="translate(-40.91 -174.91)"/><path class="cls-31" d="M571.07,584.19a1.39,1.39,0,0,1-.91-1.39,1.57,1.57,0,0,1,1.5-1.65,1.47,1.47,0,0,1,1.66,1.47C573.38,583.5,572.87,584.19,571.07,584.19Z" transform="translate(-40.91 -174.91)"/><path class="cls-114" d="M580.79,633.32c-.89-.11-1.61-.44-1.67-1.46a1.53,1.53,0,0,1,1.43-1.71,1.4,1.4,0,0,1,1.63,1.43A1.56,1.56,0,0,1,580.79,633.32Z" transform="translate(-40.91 -174.91)"/><path class="cls-115" d="M560.72,573.45c-.26.81-.66,1.54-1.62,1.55a1.6,1.6,0,0,1-1.78-1.81c0-1,.82-1.34,1.73-1.28S560.41,572.67,560.72,573.45Z" transform="translate(-40.91 -174.91)"/><path class="cls-37" d="M500.17,636.71c-.2.91-.73,1.46-1.69,1.33a1.39,1.39,0,0,1-1.37-1.64,1.45,1.45,0,0,1,1.69-1.35C499.78,635.13,500.14,635.81,500.17,636.71Z" transform="translate(-40.91 -174.91)"/><path class="cls-113" d="M543.63,567.23a1.62,1.62,0,0,1,1.54,1.57,1.54,1.54,0,0,1-1.37,1.72,1.51,1.51,0,0,1-1.76-1.73C542.07,567.83,542.82,567.47,543.63,567.23Z" transform="translate(-40.91 -174.91)"/><path class="cls-37" d="M540,568.79a1.44,1.44,0,0,1-1.7,1.3,1.33,1.33,0,0,1-1.32-1.64,1.37,1.37,0,0,1,1.65-1.34A1.51,1.51,0,0,1,540,568.79Z" transform="translate(-40.91 -174.91)"/><path class="cls-111" d="M494.11,625.28a1.66,1.66,0,0,1,1.88,1.28,1.61,1.61,0,0,1-1.56,2,1.58,1.58,0,0,1-1.55-1.58A1.54,1.54,0,0,1,494.11,625.28Z" transform="translate(-40.91 -174.91)"/><path class="cls-113" d="M501.94,585.29A1.54,1.54,0,0,1,503.1,587a1.51,1.51,0,0,1-1.56,1.53,1.59,1.59,0,0,1-1.54-2A1.67,1.67,0,0,1,501.94,585.29Z" transform="translate(-40.91 -174.91)"/><path class="cls-28" d="M559.08,652.82a1.57,1.57,0,0,1,1.69,1.34,1.49,1.49,0,0,1-1.36,1.71,1.39,1.39,0,0,1-1.74-1.3C557.53,653.64,558.05,653,559.08,652.82Z" transform="translate(-40.91 -174.91)"/><path class="cls-31" d="M519.36,654.14c0,1-.33,1.68-1.31,1.78a1.54,1.54,0,0,1-1.78-1.32c-.2-1,.46-1.53,1.33-1.67A1.45,1.45,0,0,1,519.36,654.14Z" transform="translate(-40.91 -174.91)"/><path class="cls-116" d="M565.31,651.82a1.54,1.54,0,0,1-1.8,1.31c-.89-.11-1.55-.64-1.33-1.66a1.59,1.59,0,0,1,1.79-1.36C565,650.2,565.31,650.9,565.31,651.82Z" transform="translate(-40.91 -174.91)"/><path class="cls-29" d="M569.68,648.44c-.21.85-.6,1.54-1.59,1.58a1.55,1.55,0,0,1-1.69-1.46A1.5,1.5,0,0,1,568,647C569,647,569.39,647.62,569.68,648.44Z" transform="translate(-40.91 -174.91)"/><path class="cls-22" d="M553,762c2.5,1.64,2.11,4.24,2,6.62-.21,6.84-8.62,16.81-15.27,18.44a4.93,4.93,0,0,1-4.5-1.3l-.16-.46c4.55-.8,6.66-4.62,9.23-7.73A34.37,34.37,0,0,0,551,766c.68-.89-.2-2,.47-2.95C551.83,762.51,552.5,762.39,553,762Z" transform="translate(-40.91 -174.91)"/><path class="cls-21" d="M531,768c-2.15-.75-4.72-1-4.19-4.44.26-1.7-1.61-1.85-2.68-2.32-1.93-.86-4-1.49-5.63-3.56,1-1.12,3.07-.93,3.59-2.55,3.58-2.18,7.44-.86,11.19-.9a2.58,2.58,0,0,1,1.57,2.62c-.57,1.85-.79,3.79-1.27,5.67Z" transform="translate(-40.91 -174.91)"/><path class="cls-117" d="M552,755c.51,2,2.68-.47,3,1,.5,2.25-2,2.68-3,4.06-1,.71-1.08,2-2,2.77-3.59,2.52-5.28-.18-7.08-2.57a5.86,5.86,0,0,1-1.84-5.11A12.73,12.73,0,0,1,552,755Z" transform="translate(-40.91 -174.91)"/><path class="cls-118" d="M542.92,760.23c2.4.94,4.13,4.56,7.43,1.86a1.24,1.24,0,0,1,1.52.83c-.21,1.06.12,2.26-.83,3.12C547.53,765.23,543,765.78,542.92,760.23Z" transform="translate(-40.91 -174.91)"/><path class="cls-94" d="M522,754.12,519,754c5.15-2.06,10.57-1.17,15.72-.61,2.23.23,1.52,3.6.23,5.6l-.43-.61c-.45-1.41,1.18-3.87-2-3.89C529,754.29,525.45,754.89,522,754.12Z" transform="translate(-40.91 -174.91)"/><path class="cls-53" d="M557.07,754.25l-5-.11a34.88,34.88,0,0,1-11.17-.06l-.18-.8C546.23,753,551.78,751.47,557.07,754.25Z" transform="translate(-40.91 -174.91)"/><path class="cls-118" d="M540.94,754.08l11.17.06c0,.29-.07.57-.11.85l-10.92.13Z" transform="translate(-40.91 -174.91)"/><path class="cls-119" d="M515.92,752.79a2.72,2.72,0,0,1-1.68-3.64c.92-2.38,3.19-.66,4.77-1.21l-1.07,1.15C514.13,748.6,515.88,751.16,515.92,752.79Z" transform="translate(-40.91 -174.91)"/><path class="cls-47" d="M533.58,762.53c-.84-1.6-1.16-3.15.36-4.55.61.1.72.72,1.09,1.06L535,759C534.47,760.15,536.07,762.14,533.58,762.53Z" transform="translate(-40.91 -174.91)"/><path class="cls-120" d="M531,782c-1.48-1-3.57-1.65-3-4.17C529.49,778.89,530.94,780,531,782Z" transform="translate(-40.91 -174.91)"/><path class="cls-120" d="M535.07,785.28a.39.39,0,0,1,.16.46A6.94,6.94,0,0,1,531,782,4.59,4.59,0,0,1,535.07,785.28Z" transform="translate(-40.91 -174.91)"/><path class="cls-121" d="M527,774c.37-2.26,1.36-3.89,3.95-3.88A10.58,10.58,0,0,1,527,774Z" transform="translate(-40.91 -174.91)"/><path class="cls-122" d="M501.12,682.05c-6.06.74-5.43-3.32-5.05-7.12.11-1.09,1-1,1.88-.87a1.21,1.21,0,0,0,2.06,0h1A6.72,6.72,0,0,1,501.12,682.05Z" transform="translate(-40.91 -174.91)"/><path class="cls-123" d="M555,674c3.51-.7,5,.52,4.94,4.31-.06,3-1.26,4.18-4,4.09-.39,0-.75-.89-1.12-1.36A5.51,5.51,0,0,1,555,674Z" transform="translate(-40.91 -174.91)"/><path class="cls-124" d="M561.06,683.37c.33-4.21-.76-8.94,2.54-9,2.85-.07,1.5,4.88,3,8C564.29,682.13,562.56,677.84,561.06,683.37Z" transform="translate(-40.91 -174.91)"/><path class="cls-29" d="M506.38,674.21c.33,1.06.66,2.12,1,3.22,1.15-.88,0-2.74,1.61-3.27a.68.68,0,0,1,.86.84c-.74,2.51.38,7.32-2.37,7C504.55,681.75,505.2,677.28,506.38,674.21Z" transform="translate(-40.91 -174.91)"/><path class="cls-125" d="M571.08,681.92a5.24,5.24,0,0,1,0-2c.88-1.95-.29-5.77,2.25-5.7,2.76.09,1.3,3.86,2,5.91.66,1.82.24,2.56-1.56.82C572.6,679.74,572.75,682.56,571.08,681.92Z" transform="translate(-40.91 -174.91)"/><path class="cls-91" d="M516,674c1.54-.16,3.14-.6,4.31.93,1.13,6.44-.09,8.07-5,6.63C514.43,679,514.07,676.38,516,674Z" transform="translate(-40.91 -174.91)"/><path class="cls-102" d="M539.88,678c0,1.4,1.07,2.8,0,4.47-1.25-1.44-2.6-3.19-3.85.64-1.46-3.27.09-5.79.21-8.26.07-1.6,1.82-1.44,2.91-.14C540,675.71,538.58,677.18,539.88,678Z" transform="translate(-40.91 -174.91)"/><path class="cls-26" d="M516,682c6,.47,2.44-5,4.36-7.08a1.05,1.05,0,0,1,.5,0c1.7.38,2.3,1.75,2.86,3.16.33,1.61.15,3-1.55,3.81-2.27,1.46-4.77,1.14-7.25,1a.92.92,0,0,1,0-1.11A.73.73,0,0,1,516,682Z" transform="translate(-40.91 -174.91)"/><path class="cls-28" d="M581,674.28c1.51,1.73-.07,4.13,1.48,6.48l.66-2.71c1.5-.7,2.66-.09,3.7,1-.46.69,2.28,5.19-1.83,1.54-1.06,1.31-2.29,2.11-4,1.29C579.19,679.32,580.45,676.81,581,674.28Z" transform="translate(-40.91 -174.91)"/><path class="cls-126" d="M566,674.43c6.2,1.4,3,4.93,2.8,8.66C566.24,680.09,568.06,676.75,566,674.43Z" transform="translate(-40.91 -174.91)"/><path class="cls-88" d="M542.91,680a5.42,5.42,0,0,0-.27-1.88c-.71-1.28-1.89-2.5-.48-3.93a2.31,2.31,0,0,1,3.17-.1c1.82,1.39-.4,2.58-.34,3.91C544.75,679.15,544.73,680.5,542.91,680Z" transform="translate(-40.91 -174.91)"/><path class="cls-127" d="M511.1,681.91q0-3.9,0-7.8c2.74-1.26,3,.9,3.63,2.61a11.26,11.26,0,0,1-1,4.64C513,682.27,512.22,683,511.1,681.91Z" transform="translate(-40.91 -174.91)"/><path class="cls-116" d="M502,674c4,1,1.31,4.17,1.91,6.26.35,1.18.16,2.91-2,1.77A15.1,15.1,0,0,1,502,674Z" transform="translate(-40.91 -174.91)"/><path class="cls-78" d="M514.12,677.08c-.93-1.09-.7-3.37-3.06-3,1.6-2.16,3.28-.7,4.95-.1,0,2.67,0,5.34,0,8h-.45l-.45,0a2.38,2.38,0,0,1-.83-1C513.72,679.71,514.51,678.38,514.12,677.08Z" transform="translate(-40.91 -174.91)"/><path class="cls-126" d="M523.23,678c-1.44-.48-1.51-2.06-2.41-3,1.32-1.23,2.94-1.86,4.48-.86,1.89,1.23-.31,2.56-.29,3.89A1.15,1.15,0,0,1,523.23,678Z" transform="translate(-40.91 -174.91)"/><path class="cls-40" d="M492,681c2.42-1.81-.29-5,1.83-7,2.19,4.75,1.64,7-1.83,7.84-.29-.18-.39-.36-.29-.54S491.9,681,492,681Z" transform="translate(-40.91 -174.91)"/><path class="cls-22" d="M532.15,681.83c-1.39-2.59-.88-5.15-.35-7.71C533.47,676.65,533.05,679.25,532.15,681.83Z" transform="translate(-40.91 -174.91)"/><path class="cls-87" d="M586.83,679l-3.7-1c-.09-1.6-.17-4.06,1.52-3.95C587.41,674.27,586.49,677.16,586.83,679Z" transform="translate(-40.91 -174.91)"/><path class="cls-1" d="M528.55,673.15a24.77,24.77,0,0,1-.08,9.78C526.58,679.3,526.69,676.74,528.55,673.15Z" transform="translate(-40.91 -174.91)"/><path class="cls-1" d="M551,682c-2.62-2.63-3.25-5.27,0-7.93,1.71,2,1.5,4.21,1,6.51A6.56,6.56,0,0,1,551,682Z" transform="translate(-40.91 -174.91)"/><path class="cls-1" d="M492,681q0,.4,0,.81c-3.62-2.16-1.43-5-1.32-7.53l1.32-.12Z" transform="translate(-40.91 -174.91)"/><path class="cls-102" d="M523.23,678l1.78,0a2.46,2.46,0,0,1,.64,3.73c-.9,1.16-2.3.81-3.52.21C522.5,680.61,522.86,679.28,523.23,678Z" transform="translate(-40.91 -174.91)"/><path class="cls-51" d="M578.76,678.11c-.41,1.28-.83,2.56-1.34,4.16-1-2-.51-3.77-.54-5.46,0-1-.65-2.59,1.09-2.7,1.5-.1.79,2,1.87,2.48C580.58,677.88,580,678.24,578.76,678.11Z" transform="translate(-40.91 -174.91)"/><path class="cls-128" d="M542.91,680l2.08-2a2.53,2.53,0,0,1,.66,3.76,2,2,0,0,1-2.59.55C541.75,681.63,542.27,680.83,542.91,680Z" transform="translate(-40.91 -174.91)"/><path class="cls-50" d="M578.76,678.11l1.08-1.52c.23-.85-.59-2.21,1.15-2.31l0,7.58C578,681.9,579.44,679.39,578.76,678.11Z" transform="translate(-40.91 -174.91)"/><path class="cls-129" d="M551,682l.09-1.06c1.23-2.16-.39-4.72,1-6.86a1.35,1.35,0,0,1,1,0c1.65,1.86.66,4.16,1.06,6.22,0,.24.07.48.11.71C553.41,682.29,552.28,682.4,551,682Z" transform="translate(-40.91 -174.91)"/><path class="cls-118" d="M502,674c0,2.68-.07,5.35-.11,8h-.79l-.12-8Z" transform="translate(-40.91 -174.91)"/><path class="cls-61" d="M555,674l-.17,7a3.68,3.68,0,0,0-.66-.06l-.41,0c-.29-2.32-.63-4.65.18-6.94Z" transform="translate(-40.91 -174.91)"/><path class="cls-1" d="M554,674l-.18,6.94c-1.51-2.16-.47-4.6-.76-6.9A1,1,0,0,1,554,674Z" transform="translate(-40.91 -174.91)"/><path class="cls-118" d="M552.05,674c-.51,2.26,1,4.81-1,6.86Q551,677.46,551,674Z" transform="translate(-40.91 -174.91)"/><path class="cls-99" d="M539.88,678c-.54-.4-2.1,2.31-1.79-.55a11.76,11.76,0,0,1,1-2.74A4.77,4.77,0,0,1,539.88,678Z" transform="translate(-40.91 -174.91)"/><path class="cls-130" d="M515,681l.06,1c0,.29-.11.59-.18.88-1.31-.15-2.91.79-3.78-1a1.7,1.7,0,0,0,2-1A1.3,1.3,0,0,1,515,681Z" transform="translate(-40.91 -174.91)"/><path class="cls-131" d="M500,674c-.3.75.49,2.14-.73,2.21-1,0-1.16-1.24-1.33-2.16Z" transform="translate(-40.91 -174.91)"/><path class="cls-57" d="M522,754.12l12.11,0c.26.25.32.47.2.67s-.22.28-.33.28l-11.84,0Z" transform="translate(-40.91 -174.91)"/><path class="cls-6" d="M551.87,762.92l-1.52-.83c-.35-1.42.39-2,1.66-2.06a2,2,0,0,0,1,2Z" transform="translate(-40.91 -174.91)"/><path class="cls-7" d="M498,613.65c.07-22.07,18.42-39.83,41-39.64,22.09.19,40.11,18.27,40,40.15s-18.37,39.63-40.54,39.67A40.17,40.17,0,0,1,498,613.65Z" transform="translate(-40.91 -174.91)"/><path class="cls-132" d="M533.93,755.11a6.2,6.2,0,0,0,.13-1c1.83,1.33.6,3.26,1,4.88L533.94,758Z" transform="translate(-40.91 -174.91)"/><path class="cls-118" d="M557.48,680.65a8.24,8.24,0,0,1,0-5.55C558.1,677.32,558.22,678.89,557.48,680.65Z" transform="translate(-40.91 -174.91)"/><path class="cls-2" d="M515,681l-1.93-.09c-.53-1.52.16-2.71,1-3.85C515.52,678.14,514.83,679.68,515,681Z" transform="translate(-40.91 -174.91)"/><path class="cls-117" d="M503.94,598.86c.38-2.39,1.81-4.26,3.23-6.07.89-1.14,1.77-3.77,3.49-.36.22.42,3.61,0,4.76-1,1.38-1.17,2-4.16,1-5.2-1.88-1.92-.63-2.32.57-3.23,11.57-8.83,33.31-8.49,44,.73.55.47,2.62,1.1.45,2.13-3.63,1.72,2,3.42-.06,5.07,1.83.54,4.15,2.58,5.44,1,2-2.49,2.35-.11,2.82.58,7.23,10.77,9.08,22.25,4.27,34.54a.91.91,0,0,1-1.24-.11c-1.06-4.21-2-8.26-7.11-9.88-2.39-.76-2-4.11.49-6.07,2.18-1.71,5.07-2.68,5.92-6.26-1.64-.24-2.67,1.17-4,1.24s-2.77.29-3.76-.79c-1.31-1.41-.06-2.38.82-3.36,1.36-1.52.59-2.81-.57-3.89-1.49-1.39-3.75-1.23-4.38.22-1.44,3.35-5.91,4.48-6,8.73,0,1.25-1.28,1.82-2.52,2-3.27.57-8.35-4-8.06-7.33.13-1.57.95-3.51,2.41-3.38,3.81.32,5-3.42,8-4.46,1.79-.64,2.48-2.77,1.33-4.67-.88-1.45-2.13-2.64-4.13-1.65-1.17.57-2,2.76-3.7.92s-1-3.71.17-5.51a10.29,10.29,0,0,1,1.3-1.5c-3.64.45-5.66,1.6-6.36,4.38-.45,1.78-.72,3.18-2.86,3.37a4.35,4.35,0,0,1-4.79-2.75c-1.07-2.27-2.36-4.36-5.18-5.1-.73,1.56.66,2.49.85,3.68a3.83,3.83,0,0,1-1,3.67c-1.3,1.22-2.09,0-2.93-.73-2-1.59-3.53-.54-4.68,1-1.42,1.9-.49,3.64,1.33,4.55,3.44,1.74,5.93,5.15,10,5.72a5,5,0,0,1,.57,1.35c.24,2.52-.72,4.26-3.27,4.92-.6,0-.91-.55-1.41-.75.08.51.52.9.49,1.48-.75,2.79-2.69,3.24-5.15,2.66-1.06-3.64-4.13-6-5.91-9.14-1.41-2.48-3-3.67-5.47-2.09-2.2,1.42-2.4,3,.11,5,2.26,1.75.15,2.93-1.43,3.3-3.64.86-5.88-1.22-7.55-4.16C504.06,600.7,503.39,599.83,503.94,598.86Z" transform="translate(-40.91 -174.91)"/><path class="cls-21" d="M572.85,626.93l1,.07c-2.63,7.53-3.53,9.21-9.51,9-5.59-.22-4.29,5.16-4,5.41,2.8,2.09.13,2.74-.77,3.48-11.1,8.95-33.12,8.47-43.9-.93-.5-.44-2.68-.76-.11-2.13,2-1,.85-4.09-.25-5.33s-4.38-1.92-5.08-.77c-1.56,2.59-2.13,1-2.88-.16-7.71-11.59-9.71-23.75-3.48-36.68.35.71.71,1.41,1.07,2.12-.92,4.8,1.07,8.15,5.52,9.67,2,.67,2.08,1.68,2.15,3.26.09,1.88-.3,3.08-2.43,3.62-2.91.73-5,2.54-5.56,6.53,1.87-1.32,3.44-2.35,5.32-2.13,2.32.27,4.4.83,1.87,3.53-1.79,1.91-1.08,3.21.64,4.48,2,1.47,4.44,1.23,5.11-.78,1.1-3.35,5.2-4.46,5.32-8.67.06-2.15,3.13-1.67,5.11-1a17.45,17.45,0,0,1,3.64,3.38c2.84,3.17,2,5.25-1.94,6.65-3.35,1.17-4.9,4.87-8.12,6.53-1.14.59-.48,2.45.55,3.5.84.85,1.78,1.62,3.06.87s2.32-3,4.14-1,.85,3.7-.12,5.53a4.33,4.33,0,0,0-.68,1.68c3.42-.52,5.36-2.9,7.41-5.1,2.39-2.33,4-.47,5.67,1.06,1.89,1.44,3.32,3.58,5.87,4.34.4-1.7-.75-2.47-1-3.55-.33-1.36-.49-2.65.62-3.72,1.41-1.35,2.36-.19,3.39.65,2,1.65,3.47.47,4.55-1.14,1.21-1.83.69-4.29-1.13-4.6-3.45-.58-4.49-4.91-8.35-4.64-1.25.08-2.2-1.48-2.28-2.92a3.72,3.72,0,0,1,3.29-4.25c1,.22,1.46,1.08,2.2,1.62a5.69,5.69,0,0,1-1.3-1.91,2.29,2.29,0,0,1,.28-1.82c3-2,5-3.2,6.22,2.27.54,2.48,4.26,4.94,6.4,7.57.91,1.11,2.83.86,4.07-.36,1-1,1.7-2.13.71-3.53-.81-1.14-2.65-2.22-.89-3.7s3.75-.88,5.58.21C571.4,623.92,572.11,625.44,572.85,626.93Z" transform="translate(-40.91 -174.91)"/><path class="cls-6" d="M572.85,626.93c-4.35-4.1-4.35-4.1-9.09-3.49,3.48,1.94,5.9,4,2.15,7.39-1.39,1.27-2.42,2.5-4.56,1.4-1.76-.9-4.75-.5-3.87-3.84.27-1,.16-1.42-.73-1.87-1.38-.71-2.84-.82-4.07-2.38-1.81-2.28,1.24-2.36,1-2.71C552,619.35,550,619.64,548,621c-.69.57-.19,1.68-1,2.2-2.5.8-3.7,2.22-2.27,4.83.35.64.81,1.89,1.71,1,2.42-2.53,2.92-.14,4,1.28.68.85,0,3,2.3,2.46,4.2-.89,3.9,2.78,4.43,5,.77,3.22-2.64,4.12-4.41,5-2.68,1.37-3.16-1.88-4.23-3.89-3.07,3.82.21,5.84,1.89,8.22-4.72,1.38-7.58.09-9.26-4.14-1-.77-.7-2.88-2.8-2.45-1,.2-2,.12-1.41,1.59-3,3.13-5.31,7.55-11.16,5.38,1.74-2.31,5.12-4.33,2.58-8.72-1.71,4.86-4.4,4.89-7.42,1.86-.92-.93-2.41-1.81-1.29-3.74.92-1.6.53-4.44,3.35-4.1,2.07.25,2.62-.59,3-2.22.57-2.58,1.82-3.71,4.49-2.22,1,.59,1.25-.47,1.6-1.19.68-1.4.54-2.91-.79-3.43-1.85-.74-2.56-2.15-3.3-3.69-1-1-2.88,0-3.68-1.53-.73-2.82-3.68-1.87-5.34-3.13a2.28,2.28,0,0,1-.56-1.24,2.64,2.64,0,0,1,.4-1.29c1.14-1.55,5.66.07,3.91-4.19.31-.66.64-1.28,1.52-.72,2.28.19,4.77.72,4.72-2.89a.73.73,0,0,1,1.15-.12c2.57-.69,2.62-2.84,2.82-4.9,2.55-.32,4-2,4.93-4.19a1.51,1.51,0,0,1,1.28,0c1.07.82.55,2.52,2.08,3.42a12.59,12.59,0,0,0-2.16-3.85c-.86-1.27.3-1.87.86-2.68a1.72,1.72,0,0,0,.33-1.56,2.27,2.27,0,0,0-3.57.09,1.74,1.74,0,0,0,.41,1.53c.56.79,1.7,1.41.8,2.64a49.11,49.11,0,0,1-4.9,4.67c-1,.58-1.88-4.42-3.22,0-.19.63-2.68-1-3.51-2.52-.55-1,0-2.89-2.28-2.47-4.24.8-4-3.16-4.49-5.19-.64-2.84,2.84-3.86,4.63-4.78,2.64-1.35,3.18,1.91,4.28,3.86,2.89-3.8-.06-5.87-2.12-8.34,4.88-2.26,7.33,0,9,4.32,1.07,2.86,3.56,3.11,6.46,2.71-2.54-1.58-.39-4.13,0-4.49,2.59-2.39,5.55-4.57,9.46-2.78-4,4.15-4.13,4.38-2.69,8.51,1.35-1.56,1.71-5,4.23-3.76,1.9.91,5.06,2.18,4.59,4.92-.37,2.18.11,6.32-4.67,5.24-1.08-.24-1.28,1.27-1.78,2.07-1.33,2.09-1.31,1.75-4.31,1.41-2.13-.25-2.58,2.49-2.13,3.52,1.07,2.48,2.72,4.89,5.57,5.77,1.94.6,2.37,0,2.24-2.74a1.17,1.17,0,0,1,.39-.88c2.95-2.18,4.35-5.85,7-8,2.93-2.38,7.45-.22,8.34,3.39.69,2.82-2.19,3.09-4.39,4.17,4.71,1.42,4.71,1.42,8.79-2.15,2.1,4.62.18,7.24-4.19,8.73-.4.13-.61,1-1,1.05-2.51.25-2.19,2.2-2.1,3.7.17,3.1,1.65-.18,2.3.37C570.89,618.62,574.48,621.52,572.85,626.93Z" transform="translate(-40.91 -174.91)"/><path class="cls-7" d="M524.25,607.89l-1.25.8c.34,3-2.5,3-4,4.23l-.06,1.17c-1.36.54-1.73-2.47-3.35-.92-1.74,1.22-.92,1.79.55,2.18,1,.18,2.06,0,3.08.19a23.11,23.11,0,0,1,5.77,2.51l3,1.94c-3-.2-2.27.16-3.58,2.81-1.63,3.28-4.73,5.88-7.26,8.56-3.46,3.68-6.36-.48-8-2.93-1.81-2.68,2-3.29,3.53-4.75-4.29-1.35-4.31-1.34-8,2.44-1.61-6.34-.93-7.33,6.32-9.6,2-.63.08-2.07.48-3.12.18-.47,1.29-1.57-.49-2-7.17-1.8-8.32-3.89-5.95-10.4,1.7,3.38,4.11,5,8.58,3.1-1.78-1.65-6.2-1-3.69-5.31,2.34-4,4.89-4.2,8.4-2.3.87.47,2,1.33,1.51,2.29-1.3,2.59.94,2.43,2.12,3.15,1.78,1.1,4.78,1.92,1.16,4.44Z" transform="translate(-40.91 -174.91)"/><path class="cls-133" d="M573.51,612.36c.72.34,1.46.71,1.38,1.69a1.49,1.49,0,0,1-3-.31A1.42,1.42,0,0,1,573.51,612.36Z" transform="translate(-40.91 -174.91)"/><path class="cls-134" d="M539.89,579.84c-.19.86-.85,1.18-1.76,1.07a1.2,1.2,0,0,1-1.09-1.36,1.31,1.31,0,0,1,1.51-1.47C539.46,578.16,540,578.74,539.89,579.84Z" transform="translate(-40.91 -174.91)"/><path class="cls-135" d="M530.12,604.88,529,605a5.32,5.32,0,0,1-2.79-2.83C528.56,602,529,603.94,530.12,604.88Z" transform="translate(-40.91 -174.91)"/><path class="cls-127" d="M537,642.06c-.59-.46-1.59-1.49-1.46-1.51a15.94,15.94,0,0,1,5.56-.34c1.23.27-.85,1.8.11,2.71C539.49,644,539.07,638.91,537,642.06Z" transform="translate(-40.91 -174.91)"/><path class="cls-136" d="M547,623.19c0-.88.07-1.73,1-2.2-.53,2.93,3.18,3.07,3.61,5.74C548.87,626.92,548.65,624,547,623.19Z" transform="translate(-40.91 -174.91)"/><path class="cls-30" d="M539.87,648.73a1.4,1.4,0,0,1-1.66,1c-1-.15-1.3-.89-1.17-1.8a1.22,1.22,0,0,1,1.41-1.05C539.32,646.94,540,647.34,539.87,648.73Z" transform="translate(-40.91 -174.91)"/><path class="cls-137" d="M503.27,615.5c-.35-.33-1-.66-1.17-1.16a1.15,1.15,0,0,1,1.13-1.67,1.92,1.92,0,0,1,1.51.91C505,614.43,504.35,615.05,503.27,615.5Z" transform="translate(-40.91 -174.91)"/><path class="cls-138" d="M526.31,624.27c.47.45,1.11.84,1.05,1a2.5,2.5,0,0,1-1,1.47c-.57.31-1.43.18-1.21-.81A6.49,6.49,0,0,1,526.31,624.27Z" transform="translate(-40.91 -174.91)"/><path class="cls-21" d="M535.65,608.55c-1.47-1.7-3.26-3.55,0-5.34a5.09,5.09,0,0,1,5.65,0c1.34.9,3,2,1,3.87-1.2,1.11-1.4,2.33-.13,3.4a2,2,0,0,0,3.1-.28c1.41-1.81,2.54-1,3.57.28,1.64,2,1.85,4.28.22,6.41-.95,1.25-2,3-3.79.69a2.07,2.07,0,0,0-3.12-.18c-1.33,1.13-1,2.41.23,3.38,2,1.65.43,2.68-.69,3.48a4.91,4.91,0,0,1-6.43-.09c-1-.85-2.73-1.82-.61-3.46a2,2,0,0,0,.42-3,2.09,2.09,0,0,0-3.44,0c-1.55,1.95-2.61.74-3.51-.41a5,5,0,0,1-.2-6.44c1-1.34,1.92-2.57,3.86-.59C533.42,612,535,611.12,535.65,608.55Z" transform="translate(-40.91 -174.91)"/><path class="cls-139" d="M533,600.06c.13-3.16,2.84-4,4.9-5.35a.87.87,0,0,1,.17,1.36c-.24,3.24-.62,6.27-5.13,3.91Z" transform="translate(-40.91 -174.91)"/><path class="cls-86" d="M539,632.93c-3.2,1-3.29-3.25-5.78-3.47.37-.72.55-1.71,1.13-2.11,1.1-.76,2.2-.3,3,.73s-.49,3.17,1.56,3.81c.31.22.42.44.34.68S539.1,632.93,539,632.93Z" transform="translate(-40.91 -174.91)"/><path class="cls-107" d="M539.05,594.8c2.23-.12,1.81,3,4,3.2,1.12.12.32,1.36-.07,2-.85,1.34-2,.93-3,.26-1.54-1-.59-2.79-1-4.15A.77.77,0,0,1,539.05,594.8Z" transform="translate(-40.91 -174.91)"/><path class="cls-91" d="M519,612.92c.25-2.41,3.47-2,4-4.23,1.55.6,2.68,1.8,1.72,3.28C523.35,614.1,521,612.76,519,612.92Z" transform="translate(-40.91 -174.91)"/><path class="cls-140" d="M539,632.93l-.06-1a16.46,16.46,0,0,1,.54-3.83c.37-1,1.63-1.12,2.59-.89.49.11.94.79,1.23,1.31.83,1.49-.37,1.46-1.3,1.75C540.61,630.65,541,633.16,539,632.93Z" transform="translate(-40.91 -174.91)"/><path class="cls-141" d="M525,618.05c-3.16,2.49-3.68-2.37-6-2.17a.77.77,0,0,1,.07-1.11C521.34,615.35,525.27,612.93,525,618.05Z" transform="translate(-40.91 -174.91)"/><path class="cls-124" d="M557,613c-1,0-2,0-3,0s-2-.26-2.08-1.57a2.08,2.08,0,0,1,1.29-2.38c2.08-.9,1.15,1.33,1.91,1.77a5.65,5.65,0,0,0,1.4.37C557.71,611.58,557.52,612.27,557,613Z" transform="translate(-40.91 -174.91)"/><path class="cls-142" d="M556.73,615.48c-1.83.51-.82,4.1-3.56,3.15a1.71,1.71,0,0,1-1.1-2.39C553.07,613.86,555,615,556.73,615.48Z" transform="translate(-40.91 -174.91)"/><path class="cls-143" d="M557,613c-.14-.6-.29-1.21-.44-1.81,1.18-.2,2.63-2.4,3.42.45A4.74,4.74,0,0,1,559,616.2l.28,1.33c-.35-.16-.91-.23-1-.5C557.65,615.76,558.49,614.06,557,613Z" transform="translate(-40.91 -174.91)"/><path class="cls-104" d="M519.08,614.77c0,.37-.05.74-.07,1.11a2,2,0,0,1-3,.19,3.11,3.11,0,0,1-.9-3.83c2.47-1.88,2.72.91,3.86,1.85A5.07,5.07,0,0,1,519.08,614.77Z" transform="translate(-40.91 -174.91)"/><path class="cls-144" d="M536,593a2.08,2.08,0,0,1-.94-2.09,7.17,7.17,0,0,1,6.82-.07A1.91,1.91,0,0,1,541,593,6.67,6.67,0,0,1,536,593Z" transform="translate(-40.91 -174.91)"/><path class="cls-44" d="M541.88,590.84l-6.82.07C537.3,587.94,539.58,588.29,541.88,590.84Z" transform="translate(-40.91 -174.91)"/><path class="cls-90" d="M559,616.2c.28-1.53-.59-3.33,1.06-4.54l1.85.14c.88,1.26,1.09,2.47-.23,3.59Z" transform="translate(-40.91 -174.91)"/><path class="cls-128" d="M541.8,637.23c-2.23,2-4.45,2.26-6.66-.06C537.38,635.36,539.6,635.24,541.8,637.23Z" transform="translate(-40.91 -174.91)"/><path class="cls-145" d="M535.86,635.19c1.54-2.35,3.58-1.23,5.52-.78a.45.45,0,0,1,0,.36,1.49,1.49,0,0,1-.31.36C539.38,637.06,537.63,637,535.86,635.19Z" transform="translate(-40.91 -174.91)"/><path class="cls-146" d="M535.86,635.19a5.67,5.67,0,0,0,5.24-.06c.23.7.47,1.4.7,2.1l-6.66-.06Z" transform="translate(-40.91 -174.91)"/><path class="cls-147" d="M536,593h5l-1.9,1.8c0,.43-.1.85-.14,1.28l-.42-.05-.42,0c-.06-.45-.11-.91-.17-1.36Z" transform="translate(-40.91 -174.91)"/><path class="cls-148" d="M561.64,615.39c.07-1.2.15-2.39.23-3.59,3.1.81,1.85,3,1,4.36S561.84,616,561.64,615.39Z" transform="translate(-40.91 -174.91)"/><path class="cls-39" d="M515.11,612.24l.9,3.83c-1.63,1.75-2.31.31-2.71-1C512.83,613.63,512.59,612,515.11,612.24Z" transform="translate(-40.91 -174.91)"/></svg>